<svg xmlns="http://www.w3.org/2000/svg" version="1.1" xmlns:xlink="http://www.w3.org/1999/xlink" xmlns:svgjs="http://svgjs.dev/svgjs" width="100%" height="100%" viewBox="0 0 1000 600"><rect width="1000" height="600" x="0" y="0" fill="#ffffff"/><g><circle r="166.66666666666666" cx="342.41691080729163" cy="364.63903532421597" fill="#161b21" transform="matrix(0.7112371371868359,0,0,0.7112371371868359,0,40.65520692701347)"/><path d="M341.17433268051246 439.63894879954626L341.17433268051246 439.63894879954626Q326.00865905310445 439.63894879954626 310.8748460845776 431.387038149339L310.8748460845776 431.387038149339Q305.8408619813623 428.8700460977313 303.992943766258 428.8700460977313L303.992943766258 428.8700460977313Q300.5519926070982 428.8700460977313 300.3289679949304 433.6810055887788L300.3289679949304 433.6810055887788L300.1059433827627 436.89893213577085L295.7410331160507 436.89893213577085L295.7410331160507 398.6024201606775L299.88291877059487 398.6024201606775Q301.9220009389859 416.253225180812 313.0732315473741 424.6325784665438Q324.19260149688125 433.0119317522755 339.45385710093257 433.0119317522755Q354.6832520461028 433.0119317522755 362.616556107499 424.7281604431871Q370.5179995100141 416.47624979297984 370.5179995100141 405.22943720794825L370.5179995100141 405.22943720794825Q370.5179995100141 387.355607575646 349.8722925550553 378.1797378178865L349.8722925550553 378.1797378178865L322.56770789394466 366.0089661253028Q310.20577224807425 360.49707213887086 303.992943766258 351.0025957923003Q297.8119759433228 341.4762587868487 297.8119759433228 330.45247081398486L297.8119759433228 330.45247081398486Q297.8119759433228 313.7256249014025 309.05878852835434 301.68229584434323Q320.27374045450483 289.63896678728395 341.3973572926802 289.63896678728395L341.3973572926802 289.63896678728395Q353.79115359743173 289.63896678728395 366.8540237386865 297.8908774374912L366.8540237386865 297.8908774374912Q371.21893400539847 300.40786948909886 372.8119669494539 300.40786948909886L372.8119669494539 300.40786948909886Q375.8068688842782 300.40786948909886 376.029893496446 295.5969099980514L376.029893496446 295.5969099980514L376.2529181086137 291.0089751191716L380.6178283753257 291.0089751191716L380.6178283753257 330.6754954261526L376.4759427207815 330.6754954261526Q374.65988516455826 313.0246904060181 365.13354815910657 304.6453371202864Q355.60721115365493 296.2659838345547 341.97084915254015 296.2659838345547Q328.30262649254433 296.2659838345547 320.84723231436476 303.72137801273425Q313.39183813618524 311.17677219091377 313.39183813618524 320.70310919636546Q313.39183813618524 330.22944620181715 318.55326487492493 337.81228301552113Q323.7146916136646 345.363259170344 333.81452047897625 349.72816943705595L333.81452047897625 349.72816943705595L361.3421297522546 361.8989411296397Q375.1059343888938 368.0799089525749 382.11527934273784 378.05229518236206Q389.0927636377007 388.0246814121493 389.0927636377007 399.4945186093486L389.0927636377007 399.4945186093486Q389.0927636377007 415.8071759564765 376.029893496446 427.7230623780114Q362.96702335519115 439.63894879954626 341.17433268051246 439.63894879954626Z " fill="#ffffff" transform="matrix(0.7112371371868359,0,0,0.7112371371868359,0,40.65520692701347)"/><path d="M627.0453562396538 403.9662936958203L627.0453562396538 403.9662936958203Q615.486347811378 403.9662936958203 603.9516230142542 397.67683322749383L603.9516230142542 397.67683322749383Q600.1148092922635 395.7584263664985 598.7063586854568 395.7584263664985L598.7063586854568 395.7584263664985Q596.0837265210582 395.7584263664985 595.9137411029953 399.4252546704263L595.9137411029953 399.4252546704263L595.7437556849325 401.8779014167621L592.4168982171304 401.8779014167621L592.4168982171304 372.68897677225084L595.5737702668696 372.68897677225084Q597.1279226605873 386.14210843037 605.6271935637312 392.5287034233038Q614.1021808357232 398.91529841623765 625.7340401574544 398.91529841623765Q637.3416158480337 398.91529841623765 643.3882400048418 392.60155431675935Q649.410580530498 386.3120938484329 649.410580530498 377.7399720518335L649.410580530498 377.7399720518335Q649.410580530498 364.11685497565145 633.6747875441059 357.12316920392163L633.6747875441059 357.12316920392163L612.8637156469794 347.8468221039189Q603.4416667600656 343.64575391465064 598.7063586854568 336.4092318314024Q593.9953342419999 329.1484261170024 593.9953342419999 320.74628973846586L593.9953342419999 320.74628973846586Q593.9953342419999 307.99738338375005 602.5674560385994 298.8181708083547Q611.1152942040469 289.6389582329593 627.2153416577166 289.6389582329593L627.2153416577166 289.6389582329593Q636.6616741757822 289.6389582329593 646.6179629480364 295.92841870128575L646.6179629480364 295.92841870128575Q649.9448204158384 297.8468255622811 651.1590019734305 297.8468255622811L651.1590019734305 297.8468255622811Q653.4416633017034 297.8468255622811 653.6116487197663 294.1799972583533L653.6116487197663 294.1799972583533L653.7816341378292 290.6831543724884L657.1084916056311 290.6831543724884L657.1084916056311 320.91627515652874L653.9516195558921 320.91627515652874Q652.5674525802372 307.4631434984095 645.3066468658371 301.0765485054758Q638.0458411514371 294.68995351254193 627.6524470184497 294.68995351254193Q617.2347692543105 294.68995351254193 611.55239956478 300.3723232020724Q605.8700298752495 306.0546928916028 605.8700298752495 313.31549860600296Q605.8700298752495 320.576304320403 609.8039781218476 326.3558085345408Q613.7379263684456 332.1110291175268 621.4358374435787 335.43788658532884L621.4358374435787 335.43788658532884L642.4168947587682 344.7142336853316Q652.9074234163629 349.42525812878847 658.2498222697677 357.02603467931425Q663.5679374920205 364.6268112298401 663.5679374920205 373.36891844450236L663.5679374920205 373.36891844450236Q663.5679374920205 385.80213759424424 653.6116487197663 394.88421564503227Q643.655359947512 403.9662936958203 627.0453562396538 403.9662936958203ZM713.2279631975326 328.444200813599L713.2279631975326 328.444200813599Q703.2716744252783 328.444200813599 697.0550648504073 337.96338422512014Q690.8627389066883 347.50685126779314 690.8627389066883 364.11685497565145Q690.8627389066883 380.72685868350976 696.8850794323445 390.24604209503093Q702.9074199580008 399.7895091377039 712.4508870006737 399.7895091377039Q721.9700704121949 399.7895091377039 728.0895454624584 394.88421564503227Q734.2090205127221 389.97892215236067 736.4916818409949 380.89684410157264L736.4916818409949 380.89684410157264L739.818539308797 381.601069404976Q737.705863398587 392.2615834806336 730.2022213726685 398.1139385882269Q722.6742957155982 403.9662936958203 712.8879923614069 403.9662936958203L712.8879923614069 403.9662936958203Q697.6621556292034 403.9662936958203 687.6087323323418 393.3057796201627Q677.5553090354801 382.6452655445051 677.5553090354801 364.11685497565145Q677.5553090354801 345.5884444067978 687.7058668569491 334.90364669998837Q697.8564246784181 324.24313262433077 713.2279631975326 324.24313262433077L713.2279631975326 324.24313262433077Q725.126942461934 324.24313262433077 731.0764320941347 329.58553147773546Q737.0016380951836 334.90364669998837 737.0016380951836 343.84002296386535L737.0016380951836 343.84002296386535Q737.0016380951836 355.3747477609892 730.5421922087942 355.3747477609892L730.5421922087942 355.3747477609892Q725.2969278799969 355.3747477609892 722.1400558302578 352.5821301785276L722.1400558302578 352.5821301785276Q724.5927025765936 347.33686584973026 724.5927025765936 341.65449616019976Q724.5927025765936 335.9721264706693 721.7029504695247 332.20816364213414Q718.8374819936075 328.444200813599 713.2279631975326 328.444200813599ZM795.7680254826355 324.24313262433077Q802.5674422051507 324.24313262433077 806.8656449190262 330.0226368384686Q811.13956400175 335.7778574214546 811.13956400175 344.51996463611687Q811.13956400175 353.26207185077914 803.9758928119574 353.26207185077914L803.9758928119574 353.26207185077914Q799.774824622689 353.26207185077914 797.1521924582904 350.63943968638046L797.1521924582904 350.63943968638046Q799.4348537865633 345.5884444067978 799.4348537865633 340.34318007800044L799.4348537865633 340.34318007800044Q799.4348537865633 331.0668329779977 791.7369427114302 331.0668329779977L791.7369427114302 331.0668329779977Q785.2774968250408 331.0668329779977 780.2750688077618 341.82448157826263Q775.2969244216347 352.5821301785276 775.2969244216347 373.0289476083766L775.2969244216347 373.0289476083766L775.2969244216347 396.29266625183897Q775.2969244216347 398.72102936702294 777.7495711679705 398.72102936702294L777.7495711679705 398.72102936702294L789.4542813831572 398.72102936702294L789.4542813831572 401.8779014167621L752.0574894093243 401.8779014167621L752.0574894093243 398.72102936702294L760.265356738646 398.72102936702294Q762.7180034849819 398.72102936702294 762.7180034849819 396.29266625183897L762.7180034849819 396.29266625183897L762.7180034849819 331.94104369946393Q762.7180034849819 329.48839695312813 760.265356738646 329.48839695312813L760.265356738646 329.48839695312813L752.0574894093243 329.48839695312813L752.0574894093243 326.3558085345408L760.6053275747718 326.3558085345408Q771.0958562323665 326.3558085345408 775.2969244216347 325.2873287638599L775.2969244216347 325.2873287638599L775.2969244216347 347.676836685856Q778.0895420040963 335.6078720033917 783.5290753821083 329.9255023138612Q788.9443251289686 324.24313262433077 795.7680254826355 324.24313262433077ZM830.5421852920699 396.29266625183897L830.5421852920699 396.29266625183897L830.5421852920699 331.94104369946393Q830.5421852920699 329.48839695312813 828.113822176886 329.48839695312813L828.113822176886 329.48839695312813L819.8816712164123 329.48839695312813L819.8816712164123 326.3558085345408L828.4537930130117 326.3558085345408Q838.9443216706064 326.3558085345408 843.1453898598746 325.2873287638599L843.1453898598746 325.2873287638599L843.1453898598746 396.6326370879647Q843.1453898598746 398.72102936702294 845.5980366062105 398.72102936702294L845.5980366062105 398.72102936702294L853.8059039355323 398.72102936702294L853.8059039355323 401.8779014167621L819.8816712164123 401.8779014167621L819.8816712164123 398.72102936702294L828.113822176886 398.72102936702294Q830.5421852920699 398.72102936702294 830.5421852920699 396.29266625183897ZM830.979290652803 307.02603813767644Q828.6237784310746 304.670525915948 828.6237784310746 301.1736830300831Q828.6237784310746 297.6768401442182 830.979290652803 295.32132792248973Q833.3590865056833 292.9415320696095 836.8559293915482 292.9415320696095Q840.3527722774131 292.9415320696095 842.7082844991415 295.32132792248973Q845.06379672087 297.6768401442182 845.06379672087 301.1736830300831Q845.06379672087 304.670525915948 842.7082844991415 307.02603813767644Q840.3527722774131 309.38155035940486 836.8559293915482 309.38155035940486Q833.3590865056833 309.38155035940486 830.979290652803 307.02603813767644ZM874.9569466687847 434.0537126929496L874.9569466687847 434.0537126929496L874.9569466687847 331.94104369946393Q874.9569466687847 329.48839695312813 872.5042999224488 329.48839695312813L872.5042999224488 329.48839695312813L864.2964325931271 329.48839695312813L864.2964325931271 326.3558085345408L872.8685543897263 326.3558085345408Q883.3590830473211 326.3558085345408 887.5601512365894 325.2873287638599L887.5601512365894 325.2873287638599L887.5601512365894 349.76522896491423Q890.5227542371138 337.1863080282613 897.0793346481105 330.72686214187195Q903.6359150591072 324.24313262433077 911.6737969703661 324.24313262433077L911.6737969703661 324.24313262433077Q922.6985655133014 324.24313262433077 931.0764182606861 335.26790116726596Q939.4785546392225 346.2683860790493 939.4785546392225 364.4568258117772Q939.4785546392225 382.6452655445051 929.9593712277015 393.3057796201627Q920.4159041850284 403.9662936958203 905.0443656659139 403.9662936958203L905.0443656659139 403.9662936958203Q895.4280477297854 403.9662936958203 887.5601512365894 399.2552692523634L887.5601512365894 399.2552692523634L887.5601512365894 434.0537126929496Q887.5601512365894 436.5063594392854 889.9885143517733 436.5063594392854L889.9885143517733 436.5063594392854L901.7175081981119 436.5063594392854L901.7175081981119 439.6389478578727L864.2964325931271 439.6389478578727L864.2964325931271 436.5063594392854L872.5042999224488 436.5063594392854Q874.9569466687847 436.5063594392854 874.9569466687847 434.0537126929496ZM926.1954083991662 364.8210802790548Q926.1954083991662 348.55104740732224 921.1201294884318 339.7118056680526Q916.0448505776973 330.8968475599348 908.2740886091085 330.8968475599348Q900.4790430093681 330.8968475599348 894.0195971229787 341.21739079946667Q887.5601512365894 351.5136504078467 887.5601512365894 370.9405553293184L887.5601512365894 370.9405553293184L887.5601512365894 394.5442448089065Q895.2337786805707 399.59524008848916 904.4129912559661 399.59524008848916Q913.5922038313615 399.59524008848916 919.9059479308398 390.34317661963826Q926.1954083991662 381.0668295196355 926.1954083991662 364.8210802790548ZM970.610169775881 307.8031143345353L970.610169775881 307.8031143345353L973.2328019402796 307.8031143345353L973.2328019402796 326.3558085345408L990.7170163696042 326.3558085345408L990.7170163696042 329.48839695312813L973.2328019402796 329.48839695312813L973.2328019402796 388.7647405947687Q973.2328019402796 398.2110731128343 978.478066269077 398.2110731128343L978.478066269077 398.2110731128343Q980.906429384261 398.2110731128343 982.7519853518008 395.9284117845614Q984.5975413193405 393.6700340874403 984.5975413193405 390.683147455764Q984.5975413193405 387.7205444552396 984.0633014340001 385.0979122908409L984.0633014340001 385.0979122908409L987.3901589018021 384.5636724055004Q988.0943842052054 387.1863045698991 988.0943842052054 390.34317661963826L988.0943842052054 390.34317661963826Q988.0943842052054 396.6326370879647 984.3304213766703 400.2994653918925Q980.5664585481352 403.9662936958203 974.4469834978715 403.9662936958203Q968.327508447608 403.9662936958203 964.4906947256173 398.9881493096932Q960.6295973724748 394.01000492356604 960.6295973724748 384.0537161513118L960.6295973724748 384.0537161513118L960.6295973724748 331.94104369946393Q960.6295973724748 329.48839695312813 958.176950626139 329.48839695312813L958.176950626139 329.48839695312813L949.9690832968173 329.48839695312813L949.9690832968173 326.3558085345408L958.5412050934167 326.3558085345408Q964.1264402583397 326.3558085345408 970.610169775881 307.8031143345353ZM1068.861741416224 325.2873287638599L1068.861741416224 325.2873287638599L1068.861741416224 396.29266625183897Q1068.861741416224 398.72102936702294 1071.31438816256 398.72102936702294L1071.31438816256 398.72102936702294L1079.5222554918819 398.72102936702294L1079.5222554918819 401.8779014167621L1070.9501336952824 401.8779014167621Q1060.4596050376877 401.8779014167621 1056.2828204795712 402.9220975562912L1056.2828204795712 402.9220975562912L1056.2828204795712 379.31840807670307Q1050.3333308473705 403.9662936958203 1030.0564988355843 403.9662936958203L1030.0564988355843 403.9662936958203Q1020.9501371536445 403.9662936958203 1014.6606766853181 397.40971328482357Q1008.3712162169916 390.8531328738269 1008.3712162169916 377.40000121570773L1008.3712162169916 377.40000121570773L1008.3712162169916 331.94104369946393Q1008.3712162169916 329.48839695312813 1005.9185694706557 329.48839695312813L1005.9185694706557 329.48839695312813L997.710702141334 329.48839695312813L997.710702141334 326.3558085345408L1006.2585403067815 326.3558085345408Q1016.7490689643762 326.3558085345408 1020.9501371536445 325.2873287638599L1020.9501371536445 325.2873287638599L1020.9501371536445 379.68266254398065Q1020.9501371536445 388.5947551767058 1024.8840854002426 392.86867425942955Q1028.8180336468406 397.1668769733052 1035.3017631643818 397.1668769733052L1035.3017631643818 397.1668769733052Q1044.5538266332326 397.1668769733052 1050.406181740826 385.87498848769974Q1056.2828204795712 374.6073836332462 1056.2828204795712 353.45634089999385L1056.2828204795712 353.45634089999385L1056.2828204795712 331.94104369946393Q1056.2828204795712 329.48839695312813 1053.8301737332354 329.48839695312813L1053.8301737332354 329.48839695312813L1045.5980227727619 329.48839695312813L1045.5980227727619 326.3558085345408L1054.1701445693611 326.3558085345408Q1064.6606732269559 326.3558085345408 1068.861741416224 325.2873287638599ZM1136.3459523871866 324.24313262433077Q1143.1696527408535 324.24313262433077 1147.4435718235773 330.0226368384686Q1151.7417745374528 335.7778574214546 1151.7417745374528 344.51996463611687Q1151.7417745374528 353.26207185077914 1144.57810334766 353.26207185077914L1144.57810334766 353.26207185077914Q1140.377035158392 353.26207185077914 1137.7544029939932 350.63943968638046L1137.7544029939932 350.63943968638046Q1140.0127806911144 345.5884444067978 1140.0127806911144 340.34318007800044L1140.0127806911144 340.34318007800044Q1140.0127806911144 331.0668329779977 1132.3391532471328 331.0668329779977L1132.3391532471328 331.0668329779977Q1125.8554237295916 331.0668329779977 1120.8772793434646 341.82448157826263Q1115.8991349573375 352.5821301785276 1115.8991349573375 373.0289476083766L1115.8991349573375 373.0289476083766L1115.8991349573375 396.29266625183897Q1115.8991349573375 398.72102936702294 1118.3517817036734 398.72102936702294L1118.3517817036734 398.72102936702294L1130.05649191886 398.72102936702294L1130.05649191886 401.8779014167621L1092.635416313875 401.8779014167621L1092.635416313875 398.72102936702294L1100.8675672743489 398.72102936702294Q1103.2959303895327 398.72102936702294 1103.2959303895327 396.29266625183897L1103.2959303895327 396.29266625183897L1103.2959303895327 331.94104369946393Q1103.2959303895327 329.48839695312813 1100.8675672743489 329.48839695312813L1100.8675672743489 329.48839695312813L1092.635416313875 329.48839695312813L1092.635416313875 326.3558085345408L1101.2075381104746 326.3558085345408Q1111.6980667680693 326.3558085345408 1115.8991349573375 325.2873287638599L1115.8991349573375 325.2873287638599L1115.8991349573375 347.676836685856Q1118.691752539799 335.6078720033917 1124.1070022866593 329.9255023138612Q1129.5222520335196 324.24313262433077 1136.3459523871866 324.24313262433077ZM1202.6159818005567 362.70840436884475L1202.6159818005567 361.1299683439752L1202.7859672186196 355.0104932937116L1202.7859672186196 348.891018243448Q1202.7859672186196 328.444200813599 1189.5028209785635 328.444200813599L1189.5028209785635 328.444200813599Q1183.7233167644258 328.444200813599 1180.4935938212311 332.378149060197Q1177.2638708780364 336.31209730679507 1177.2638708780364 341.55736163559243Q1177.2638708780364 346.8026259643898 1178.672321484843 350.63943968638046L1178.672321484843 350.63943968638046Q1175.6854348531667 353.26207185077914 1170.4401705243695 353.26207185077914Q1165.194906195572 353.26207185077914 1165.194906195572 344.7142336853316Q1165.194906195572 336.1421118887322 1171.9214720246314 330.1926222565315Q1178.672321484843 324.24313262433077 1191.0812570034332 324.24313262433077L1191.0812570034332 324.24313262433077Q1215.3891717864244 324.24313262433077 1215.3891717864244 352.9221010146534L1215.3891717864244 352.9221010146534L1215.3891717864244 388.7647405947687Q1215.3891717864244 398.2110731128343 1220.634436115222 398.2110731128343L1220.634436115222 398.2110731128343Q1223.0627992304057 398.2110731128343 1224.9083551979456 395.9284117845614Q1226.7539111654855 393.6700340874403 1226.7539111654855 390.683147455764Q1226.7539111654855 387.7205444552396 1226.2196712801451 385.0979122908409L1226.2196712801451 385.0979122908409L1229.5465287479471 384.5636724055004Q1230.2507540513502 387.1863045698991 1230.2507540513502 390.34317661963826L1230.2507540513502 390.34317661963826Q1230.2507540513502 396.6326370879647 1226.486791222815 400.2994653918925Q1222.72282839428 403.9662936958203 1216.6033533440163 403.9662936958203Q1210.483878293753 403.9662936958203 1206.6470645717623 398.9881493096932Q1202.7859672186196 394.01000492356604 1202.7859672186196 384.0537161513118L1202.7859672186196 384.0537161513118L1202.7859672186196 380.89684410157264Q1199.8233642180953 392.79582336597406 1193.3396347005541 398.3810585308972Q1186.8801888141647 403.9662936958203 1178.4052015421728 403.9662936958203Q1169.9302142701806 403.9662936958203 1164.7578008348387 398.64817847356744Q1159.6096710306488 393.3057796201627 1159.6096710306488 384.49082151204493Q1159.6096710306488 375.6515797727753 1167.8175383599705 368.75502852565285Q1176.0496893204443 361.8341936473785 1191.421227839559 361.8341936473785L1191.421227839559 361.8341936473785Q1194.7480853073607 361.8341936473785 1202.6159818005567 362.70840436884475L1202.6159818005567 362.70840436884475ZM1182.3391497887708 397.3368623913681L1182.3391497887708 397.3368623913681Q1189.6728063966264 397.3368623913681 1195.5251615042198 389.0318605374389Q1201.4018002429648 380.72685868350976 1202.445996382494 365.695291000521L1202.445996382494 365.695291000521Q1200.6975749395615 365.5010219513063 1197.5407028898226 365.5010219513063L1197.5407028898226 365.5010219513063Q1183.5533313463627 365.5010219513063 1177.5309908207064 371.37766069005147Q1171.4843666638985 377.23001579764485 1171.4843666638985 384.927926872778L1171.4843666638985 384.927926872778Q1171.4843666638985 389.97892215236067 1174.4712532955746 393.6700340874403Q1177.4338562960993 397.3368623913681 1182.3391497887708 397.3368623913681Z " fill="#161b21" transform="matrix(0.7112371371868359,0,0,0.7112371371868359,0,40.65520692701347)"/></g></svg>