<svg width="870" height="400" viewBox="0 0 870 400" xmlns="http://www.w3.org/2000/svg"><mask id="satori_om-id"><rect x="0" y="0" width="870" height="400" fill="#fff"/></mask><rect x="0" y="0" width="870" height="400" fill="#fff"/><mask id="satori_om-id-0"><rect x="0" y="108" width="870" height="184" fill="#fff"/></mask><rect x="0" y="108" width="870" height="184" fill="#f9fafb"/><mask id="satori_om-id-0-0"><rect x="0" y="108" width="870" height="184" fill="#fff"/></mask><mask id="satori_om-id-0-0-0"><rect x="32" y="160" width="473" height="80" fill="#fff"/></mask><mask id="satori_om-id-0-0-0-0"><rect x="32" y="160" width="473" height="40" fill="#fff"/></mask><path fill="#111827" d="M51.0 193.1L34.3 193.1L34.3 166.9L39.8 166.9L39.8 188.5L51.0 188.5L51.0 193.1ZM62.7 193.5L62.7 193.5Q59.6 193.5 57.4 192.2Q55.3 191.0 54.1 188.7Q52.9 186.5 52.9 183.4L52.9 183.4Q52.9 180.3 54.1 178.0Q55.3 175.8 57.4 174.5Q59.5 173.2 62.4 173.2L62.4 173.2Q64.4 173.2 66.1 173.8Q67.7 174.4 69.0 175.7Q70.3 176.9 71.0 178.8Q71.7 180.7 71.7 183.2L71.7 183.2L71.7 184.7L55.1 184.7L55.1 181.3L66.5 181.3Q66.5 180.1 66.0 179.2Q65.5 178.3 64.6 177.8Q63.7 177.3 62.5 177.3L62.5 177.3Q61.3 177.3 60.3 177.8Q59.4 178.4 58.8 179.4Q58.3 180.3 58.3 181.5L58.3 181.5L58.3 184.7Q58.3 186.1 58.8 187.2Q59.4 188.3 60.4 188.8Q61.4 189.4 62.7 189.4L62.7 189.4Q63.6 189.4 64.4 189.2Q65.2 188.9 65.7 188.4Q66.2 187.9 66.5 187.1L66.5 187.1L71.5 187.5Q71.2 189.3 70.0 190.6Q68.8 192.0 66.9 192.7Q65.1 193.5 62.7 193.5ZM79.9 193.5L79.9 193.5Q78.0 193.5 76.6 192.8Q75.1 192.1 74.2 190.8Q73.4 189.5 73.4 187.6L73.4 187.6Q73.4 186.0 74.0 184.9Q74.6 183.7 75.6 183.1Q76.7 182.4 78.0 182.0Q79.3 181.7 80.8 181.6L80.8 181.6Q82.5 181.4 83.5 181.2Q84.6 181.1 85.1 180.7Q85.5 180.4 85.5 179.8L85.5 179.8L85.5 179.7Q85.5 178.5 84.8 177.8Q84.0 177.2 82.6 177.2L82.6 177.2Q81.1 177.2 80.3 177.8Q79.4 178.5 79.1 179.4L79.1 179.4L74.1 179.0Q74.5 177.2 75.6 175.9Q76.7 174.6 78.5 173.9Q80.3 173.2 82.6 173.2L82.6 173.2Q84.3 173.2 85.8 173.6Q87.3 174.0 88.5 174.8Q89.6 175.6 90.3 176.8Q91.0 178.1 91.0 179.8L91.0 179.8L91.0 193.1L85.8 193.1L85.8 190.4L85.7 190.4Q85.2 191.3 84.4 192.0Q83.6 192.7 82.5 193.1Q81.4 193.5 79.9 193.5ZM81.5 189.7L81.5 189.7Q82.7 189.7 83.6 189.2Q84.5 188.7 85.0 187.9Q85.6 187.1 85.6 186.1L85.6 186.1L85.6 184.0Q85.3 184.2 84.9 184.3Q84.4 184.4 83.9 184.5Q83.3 184.6 82.8 184.7Q82.2 184.8 81.8 184.9L81.8 184.9Q80.8 185.0 80.1 185.3Q79.4 185.6 79.0 186.1Q78.6 186.7 78.6 187.4L78.6 187.4Q78.6 188.5 79.4 189.1Q80.2 189.7 81.5 189.7ZM99.8 193.1L94.3 193.1L94.3 173.5L99.6 173.5L99.6 176.9L99.8 176.9Q100.3 175.1 101.6 174.1Q102.9 173.2 104.5 173.2L104.5 173.2Q104.9 173.2 105.4 173.2Q105.9 173.3 106.2 173.4L106.2 173.4L106.2 178.2Q105.8 178.1 105.2 178.0Q104.5 177.9 103.9 177.9L103.9 177.9Q102.7 177.9 101.8 178.4Q100.8 178.9 100.3 179.9Q99.8 180.8 99.8 182.0L99.8 182.0L99.8 193.1ZM113.6 181.7L113.6 181.7L113.6 193.1L108.1 193.1L108.1 173.5L113.3 173.5L113.3 176.9L113.5 176.9Q114.2 175.2 115.7 174.2Q117.3 173.2 119.4 173.2L119.4 173.2Q121.5 173.2 123.0 174.1Q124.5 175.0 125.4 176.6Q126.2 178.3 126.2 180.6L126.2 180.6L126.2 193.1L120.8 193.1L120.8 181.6Q120.8 179.8 119.9 178.7Q118.9 177.7 117.3 177.7L117.3 177.7Q116.2 177.7 115.4 178.2Q114.5 178.7 114.0 179.6Q113.6 180.5 113.6 181.7Z M135.7 173.5L147.5 173.5L147.5 177.5L135.7 177.5L135.7 173.5ZM138.4 187.8L138.4 168.8L143.8 168.8L143.8 187.1Q143.8 187.8 144.0 188.2Q144.3 188.6 144.7 188.8Q145.1 189.0 145.6 189.0L145.6 189.0Q146.0 189.0 146.4 188.9Q146.8 188.8 147.0 188.8L147.0 188.8L147.9 192.8Q147.4 193.0 146.7 193.1Q146.0 193.3 144.9 193.4L144.9 193.4Q142.9 193.4 141.5 192.8Q140.0 192.2 139.2 191.0Q138.3 189.7 138.4 187.8L138.4 187.8ZM156.0 181.7L156.0 181.7L156.0 193.1L150.5 193.1L150.5 166.9L155.8 166.9L155.8 176.9L156.1 176.9Q156.7 175.2 158.2 174.2Q159.7 173.2 161.9 173.2L161.9 173.2Q164.0 173.2 165.5 174.1Q167.0 175.0 167.9 176.6Q168.7 178.3 168.7 180.6L168.7 180.6L168.7 193.1L163.3 193.1L163.3 181.6Q163.3 179.7 162.4 178.7Q161.4 177.7 159.8 177.7L159.8 177.7Q158.7 177.7 157.8 178.2Q157.0 178.7 156.5 179.6Q156.0 180.5 156.0 181.7ZM181.1 193.5L181.1 193.5Q178.0 193.5 175.9 192.2Q173.7 191.0 172.5 188.7Q171.3 186.5 171.3 183.4L171.3 183.4Q171.3 180.3 172.5 178.0Q173.7 175.8 175.8 174.5Q178.0 173.2 180.9 173.2L180.9 173.2Q182.8 173.2 184.5 173.8Q186.2 174.4 187.4 175.7Q188.7 176.9 189.4 178.8Q190.1 180.7 190.1 183.2L190.1 183.2L190.1 184.7L173.5 184.7L173.5 181.3L185.0 181.3Q185.0 180.1 184.4 179.2Q183.9 178.3 183.0 177.8Q182.1 177.3 180.9 177.3L180.9 177.3Q179.7 177.3 178.8 177.8Q177.8 178.4 177.3 179.4Q176.7 180.3 176.7 181.5L176.7 181.5L176.7 184.7Q176.7 186.1 177.3 187.2Q177.8 188.3 178.8 188.8Q179.8 189.4 181.2 189.4L181.2 189.4Q182.1 189.4 182.8 189.2Q183.6 188.9 184.1 188.4Q184.7 187.9 184.9 187.1L184.9 187.1L190.0 187.5Q189.6 189.3 188.4 190.6Q187.2 192.0 185.4 192.7Q183.5 193.5 181.1 193.5Z M216.1 179.1L216.1 179.1L211.1 179.4Q211.0 178.7 210.6 178.2Q210.2 177.7 209.5 177.4Q208.8 177.1 207.8 177.1L207.8 177.1Q206.6 177.1 205.7 177.6Q204.8 178.1 204.8 179.0L204.8 179.0Q204.8 179.7 205.4 180.2Q206.0 180.7 207.3 181.0L207.3 181.0L210.9 181.7Q213.8 182.3 215.2 183.6Q216.6 184.9 216.6 187.0L216.6 187.0Q216.6 188.9 215.4 190.4Q214.3 191.9 212.3 192.7Q210.4 193.5 207.8 193.5L207.8 193.5Q203.9 193.5 201.6 191.8Q199.3 190.2 198.9 187.4L198.9 187.4L204.3 187.1Q204.5 188.3 205.4 188.9Q206.4 189.5 207.8 189.5L207.8 189.5Q209.3 189.5 210.1 189.0Q211.0 188.4 211.0 187.6L211.0 187.6Q211.0 186.8 210.4 186.3Q209.8 185.9 208.5 185.6L208.5 185.6L205.1 184.9Q202.2 184.3 200.8 182.9Q199.4 181.5 199.4 179.3L199.4 179.3Q199.4 177.4 200.5 176.0Q201.5 174.7 203.4 173.9Q205.2 173.2 207.8 173.2L207.8 173.2Q211.5 173.2 213.6 174.8Q215.8 176.3 216.1 179.1ZM228.0 193.5L228.0 193.5Q225.0 193.5 222.8 192.2Q220.6 190.9 219.5 188.6Q218.3 186.3 218.3 183.3L218.3 183.3Q218.3 180.3 219.5 178.1Q220.6 175.8 222.8 174.5Q225.0 173.2 227.9 173.2L227.9 173.2Q230.5 173.2 232.4 174.1Q234.4 175.1 235.5 176.8Q236.6 178.4 236.7 180.7L236.7 180.7L231.6 180.7Q231.4 179.2 230.5 178.3Q229.5 177.4 228.0 177.4L228.0 177.4Q226.8 177.4 225.8 178.1Q224.9 178.8 224.4 180.1Q223.8 181.4 223.8 183.3L223.8 183.3Q223.8 185.2 224.4 186.5Q224.9 187.8 225.8 188.5Q226.8 189.2 228.0 189.2L228.0 189.2Q229.0 189.2 229.7 188.8Q230.5 188.4 231.0 187.7Q231.5 186.9 231.6 185.9L231.6 185.9L236.7 185.9Q236.6 188.1 235.5 189.9Q234.4 191.6 232.5 192.5Q230.6 193.5 228.0 193.5ZM244.8 193.1L239.3 193.1L239.3 173.5L244.6 173.5L244.6 176.9L244.8 176.9Q245.4 175.1 246.6 174.1Q247.9 173.2 249.5 173.2L249.5 173.2Q250.0 173.2 250.4 173.2Q250.9 173.3 251.3 173.4L251.3 173.4L251.3 178.2Q250.9 178.1 250.2 178.0Q249.5 177.9 249.0 177.9L249.0 177.9Q247.8 177.9 246.8 178.4Q245.9 178.9 245.3 179.9Q244.8 180.8 244.8 182.0L244.8 182.0L244.8 193.1ZM258.6 193.1L253.2 193.1L253.2 173.5L258.6 173.5L258.6 193.1ZM255.9 170.9L255.9 170.9Q254.7 170.9 253.8 170.1Q253.0 169.3 253.0 168.2L253.0 168.2Q253.0 167.0 253.8 166.2Q254.7 165.4 255.9 165.4L255.9 165.4Q257.1 165.4 258.0 166.2Q258.8 167.0 258.8 168.2L258.8 168.2Q258.8 169.3 258.0 170.1Q257.1 170.9 255.9 170.9ZM267.5 200.5L262.1 200.5L262.1 173.5L267.4 173.5L267.4 176.8L267.7 176.8Q268.0 176.0 268.7 175.1Q269.4 174.3 270.5 173.8Q271.6 173.2 273.3 173.2L273.3 173.2Q275.4 173.2 277.2 174.3Q279.0 175.4 280.1 177.7Q281.2 179.9 281.2 183.3L281.2 183.3Q281.2 186.6 280.2 188.8Q279.1 191.1 277.3 192.3Q275.5 193.4 273.2 193.4L273.2 193.4Q271.7 193.4 270.5 192.9Q269.4 192.4 268.7 191.6Q268.0 190.8 267.7 189.9L267.7 189.9L267.5 189.9L267.5 200.5ZM267.4 183.3L267.4 183.3Q267.4 185.0 267.9 186.3Q268.4 187.6 269.3 188.4Q270.2 189.1 271.5 189.1L271.5 189.1Q272.8 189.1 273.8 188.3Q274.7 187.6 275.2 186.3Q275.6 185.0 275.6 183.3L275.6 183.3Q275.6 181.6 275.2 180.3Q274.7 179.0 273.8 178.3Q272.9 177.5 271.5 177.5L271.5 177.5Q270.2 177.5 269.3 178.2Q268.4 178.9 267.9 180.2Q267.4 181.5 267.4 183.3ZM282.5 173.5L294.4 173.5L294.4 177.5L282.5 177.5L282.5 173.5ZM285.2 187.8L285.2 168.8L290.7 168.8L290.7 187.1Q290.7 187.8 290.9 188.2Q291.1 188.6 291.5 188.8Q292.0 189.0 292.5 189.0L292.5 189.0Q292.9 189.0 293.3 188.9Q293.7 188.8 293.9 188.8L293.9 188.8L294.7 192.8Q294.3 193.0 293.6 193.1Q292.8 193.3 291.8 193.4L291.8 193.4Q289.8 193.4 288.3 192.8Q286.9 192.2 286.0 191.0Q285.2 189.7 285.2 187.8L285.2 187.8ZM309.6 184.7L309.6 184.7L309.6 173.5L315.0 173.5L315.0 193.1L309.8 193.1L309.8 189.5L309.6 189.5Q308.9 191.3 307.4 192.3Q305.9 193.3 303.7 193.3L303.7 193.3Q301.7 193.3 300.2 192.5Q298.7 191.6 297.9 189.9Q297.0 188.3 297.0 186.0L297.0 186.0L297.0 173.5L302.5 173.5L302.5 185.0Q302.5 186.7 303.4 187.7Q304.3 188.7 305.9 188.7L305.9 188.7Q306.8 188.7 307.7 188.3Q308.6 187.8 309.1 186.9Q309.6 186.0 309.6 184.7ZM323.9 193.1L318.5 193.1L318.5 173.5L323.8 173.5L323.8 176.9L324.0 176.9Q324.5 175.1 325.8 174.1Q327.0 173.2 328.7 173.2L328.7 173.2Q329.1 173.2 329.6 173.2Q330.1 173.3 330.4 173.4L330.4 173.4L330.4 178.2Q330.0 178.1 329.3 178.0Q328.7 177.9 328.1 177.9L328.1 177.9Q326.9 177.9 326.0 178.4Q325.0 178.9 324.5 179.9Q323.9 180.8 323.9 182.0L323.9 182.0L323.9 193.1ZM340.3 193.5L340.3 193.5Q337.3 193.5 335.1 192.2Q332.9 191.0 331.8 188.7Q330.6 186.5 330.6 183.4L330.6 183.4Q330.6 180.3 331.8 178.0Q332.9 175.8 335.1 174.5Q337.2 173.2 340.1 173.2L340.1 173.2Q342.1 173.2 343.7 173.8Q345.4 174.4 346.7 175.7Q347.9 176.9 348.6 178.8Q349.3 180.7 349.3 183.2L349.3 183.2L349.3 184.7L332.8 184.7L332.8 181.3L344.2 181.3Q344.2 180.1 343.7 179.2Q343.2 178.3 342.3 177.8Q341.4 177.3 340.2 177.3L340.2 177.3Q339.0 177.3 338.0 177.8Q337.1 178.4 336.5 179.4Q336.0 180.3 336.0 181.5L336.0 181.5L336.0 184.7Q336.0 186.1 336.5 187.2Q337.1 188.3 338.1 188.8Q339.1 189.4 340.4 189.4L340.4 189.4Q341.3 189.4 342.1 189.2Q342.8 188.9 343.4 188.4Q343.9 187.9 344.2 187.1L344.2 187.1L349.2 187.5Q348.9 189.3 347.7 190.6Q346.5 192.0 344.6 192.7Q342.8 193.5 340.3 193.5ZM353.4 189.5L357.9 189.5L357.8 190.9Q357.6 192.6 357.1 194.3Q356.7 196.0 356.2 197.3Q355.7 198.7 355.4 199.5L355.4 199.5L351.8 199.5Q352.0 198.7 352.4 197.4Q352.7 196.0 353.0 194.4Q353.3 192.7 353.4 190.9L353.4 190.9L353.4 189.5Z "/><mask id="satori_om-id-0-0-0-1"><rect x="32" y="200" width="473" height="40" fill="#fff"/></mask><path fill="#ef4444" d="M53.8 214.4L48.5 214.4Q48.3 212.9 47.2 212.0Q46.0 211.2 44.0 211.2L44.0 211.2Q42.6 211.2 41.7 211.6Q40.8 211.9 40.3 212.6Q39.8 213.3 39.8 214.1L39.8 214.1Q39.8 214.8 40.1 215.3Q40.4 215.9 41 216.2Q41.6 216.6 42.3 216.9Q43.1 217.2 43.9 217.4L43.9 217.4L46.3 217.9Q48.0 218.3 49.4 218.9Q50.9 219.6 51.9 220.5Q53.0 221.4 53.5 222.7Q54.1 224.0 54.1 225.6L54.1 225.6Q54.1 228.0 52.9 229.8Q51.7 231.5 49.4 232.5Q47.2 233.5 44.0 233.5L44.0 233.5Q40.8 233.5 38.5 232.5Q36.1 231.5 34.8 229.6Q33.5 227.7 33.4 224.9L33.4 224.9L38.8 224.9Q38.9 226.2 39.5 227.1Q40.2 227.9 41.4 228.4Q42.5 228.8 43.9 228.8L43.9 228.8Q45.3 228.8 46.4 228.4Q47.4 228.0 48.0 227.3Q48.6 226.5 48.6 225.6L48.6 225.6Q48.6 224.7 48.0 224.1Q47.5 223.5 46.5 223.1Q45.5 222.7 44.1 222.3L44.1 222.3L41.3 221.6Q37.9 220.8 36.0 219.1Q34.1 217.4 34.1 214.5L34.1 214.5Q34.1 212.1 35.4 210.3Q36.7 208.5 38.9 207.5Q41.2 206.6 44.0 206.6L44.0 206.6Q47.0 206.6 49.1 207.5Q51.3 208.5 52.5 210.3Q53.7 212.1 53.8 214.4L53.8 214.4ZM55.5 213.5L67.3 213.5L67.3 217.5L55.5 217.5L55.5 213.5ZM58.2 227.8L58.2 208.8L63.6 208.8L63.6 227.1Q63.6 227.8 63.8 228.2Q64.1 228.6 64.5 228.8Q64.9 229.0 65.4 229.0L65.4 229.0Q65.8 229.0 66.2 228.9Q66.6 228.8 66.8 228.8L66.8 228.8L67.6 232.8Q67.2 233.0 66.5 233.1Q65.8 233.3 64.7 233.4L64.7 233.4Q62.7 233.4 61.3 232.8Q59.8 232.2 59.0 231.0Q58.1 229.7 58.2 227.8L58.2 227.8ZM75.5 233.5L75.5 233.5Q73.7 233.5 72.2 232.8Q70.7 232.1 69.9 230.8Q69.0 229.5 69.0 227.6L69.0 227.6Q69.0 226.0 69.6 224.9Q70.2 223.7 71.2 223.1Q72.3 222.4 73.6 222.0Q74.9 221.7 76.4 221.6L76.4 221.6Q78.1 221.4 79.2 221.2Q80.2 221.1 80.7 220.7Q81.1 220.4 81.1 219.8L81.1 219.8L81.1 219.7Q81.1 218.5 80.4 217.8Q79.6 217.2 78.2 217.2L78.2 217.2Q76.8 217.2 75.9 217.8Q75.0 218.5 74.7 219.4L74.7 219.4L69.7 219.0Q70.1 217.2 71.2 215.9Q72.3 214.6 74.1 213.9Q75.9 213.2 78.3 213.2L78.3 213.2Q79.9 213.2 81.4 213.6Q82.9 214.0 84.1 214.8Q85.2 215.6 85.9 216.8Q86.6 218.1 86.6 219.8L86.6 219.8L86.6 233.1L81.4 233.1L81.4 230.4L81.3 230.4Q80.8 231.3 80.0 232.0Q79.2 232.7 78.1 233.1Q77.0 233.5 75.5 233.5ZM77.1 229.7L77.1 229.7Q78.3 229.7 79.2 229.2Q80.1 228.7 80.7 227.9Q81.2 227.1 81.2 226.1L81.2 226.1L81.2 224.0Q80.9 224.2 80.5 224.3Q80.0 224.4 79.5 224.5Q78.9 224.6 78.4 224.7Q77.8 224.8 77.4 224.9L77.4 224.9Q76.4 225.0 75.7 225.3Q75.0 225.6 74.6 226.1Q74.2 226.7 74.2 227.4L74.2 227.4Q74.2 228.5 75.0 229.1Q75.8 229.7 77.1 229.7ZM95.4 233.1L89.9 233.1L89.9 213.5L95.2 213.5L95.2 216.9L95.4 216.9Q95.9 215.1 97.2 214.1Q98.5 213.2 100.1 213.2L100.1 213.2Q100.5 213.2 101.0 213.2Q101.5 213.3 101.8 213.4L101.8 213.4L101.8 218.2Q101.5 218.1 100.8 218.0Q100.1 217.9 99.5 217.9L99.5 217.9Q98.3 217.9 97.4 218.4Q96.5 218.9 95.9 219.9Q95.4 220.8 95.4 222.0L95.4 222.0L95.4 233.1ZM103.3 213.5L115.2 213.5L115.2 217.5L103.3 217.5L103.3 213.5ZM106.0 227.8L106.0 208.8L111.5 208.8L111.5 227.1Q111.5 227.8 111.7 228.2Q111.9 228.6 112.3 228.8Q112.8 229.0 113.3 229.0L113.3 229.0Q113.7 229.0 114.1 228.9Q114.5 228.8 114.7 228.8L114.7 228.8L115.5 232.8Q115.1 233.0 114.4 233.1Q113.6 233.3 112.6 233.4L112.6 233.4Q110.6 233.4 109.1 232.8Q107.6 232.2 106.8 231.0Q106.0 229.7 106.0 227.8L106.0 227.8Z M124.3 206.9L129.7 206.9L129.7 233.1L124.3 233.1L124.3 206.9ZM142.1 233.5L142.1 233.5Q139.1 233.5 136.9 232.2Q134.7 231.0 133.5 228.7Q132.4 226.5 132.4 223.4L132.4 223.4Q132.4 220.3 133.5 218.0Q134.7 215.8 136.9 214.5Q139.0 213.2 141.9 213.2L141.9 213.2Q143.8 213.2 145.5 213.8Q147.2 214.4 148.5 215.7Q149.7 216.9 150.4 218.8Q151.1 220.7 151.1 223.2L151.1 223.2L151.1 224.7L134.5 224.7L134.5 221.3L146.0 221.3Q146.0 220.1 145.5 219.2Q145.0 218.3 144.1 217.8Q143.2 217.3 142.0 217.3L142.0 217.3Q140.7 217.3 139.8 217.8Q138.8 218.4 138.3 219.4Q137.8 220.3 137.8 221.5L137.8 221.5L137.8 224.7Q137.8 226.1 138.3 227.2Q138.8 228.3 139.8 228.8Q140.8 229.4 142.2 229.4L142.2 229.4Q143.1 229.4 143.9 229.2Q144.6 228.9 145.2 228.4Q145.7 227.9 146.0 227.1L146.0 227.1L151.0 227.5Q150.6 229.3 149.4 230.6Q148.3 232.0 146.4 232.7Q144.5 233.5 142.1 233.5ZM159.4 233.5L159.4 233.5Q157.5 233.5 156.0 232.8Q154.6 232.1 153.7 230.8Q152.9 229.5 152.9 227.6L152.9 227.6Q152.9 226.0 153.5 224.9Q154.1 223.7 155.1 223.1Q156.1 222.4 157.5 222.0Q158.8 221.7 160.2 221.6L160.2 221.6Q161.9 221.4 163.0 221.2Q164.0 221.1 164.5 220.7Q165.0 220.4 165.0 219.8L165.0 219.8L165.0 219.7Q165.0 218.5 164.2 217.8Q163.5 217.2 162.1 217.2L162.1 217.2Q160.6 217.2 159.7 217.8Q158.9 218.5 158.6 219.4L158.6 219.4L153.5 219.0Q153.9 217.2 155.1 215.9Q156.2 214.6 158.0 213.9Q159.7 213.2 162.1 213.2L162.1 213.2Q163.7 213.2 165.2 213.6Q166.7 214.0 167.9 214.8Q169.1 215.6 169.8 216.8Q170.4 218.1 170.4 219.8L170.4 219.8L170.4 233.1L165.3 233.1L165.3 230.4L165.1 230.4Q164.6 231.3 163.9 232.0Q163.1 232.7 161.9 233.1Q160.8 233.5 159.4 233.5ZM160.9 229.7L160.9 229.7Q162.1 229.7 163.1 229.2Q164.0 228.7 164.5 227.9Q165.0 227.1 165.0 226.1L165.0 226.1L165.0 224.0Q164.8 224.2 164.3 224.3Q163.9 224.4 163.3 224.5Q162.8 224.6 162.2 224.7Q161.7 224.8 161.2 224.9L161.2 224.9Q160.3 225.0 159.6 225.3Q158.9 225.6 158.5 226.1Q158.1 226.7 158.1 227.4L158.1 227.4Q158.1 228.5 158.9 229.1Q159.7 229.7 160.9 229.7ZM179.2 233.1L173.8 233.1L173.8 213.5L179.0 213.5L179.0 216.9L179.3 216.9Q179.8 215.1 181.1 214.1Q182.3 213.2 184.0 213.2L184.0 213.2Q184.4 213.2 184.9 213.2Q185.3 213.3 185.7 213.4L185.7 213.4L185.7 218.2Q185.3 218.1 184.6 218.0Q183.9 217.9 183.4 217.9L183.4 217.9Q182.2 217.9 181.2 218.4Q180.3 218.9 179.8 219.9Q179.2 220.8 179.2 222.0L179.2 222.0L179.2 233.1ZM193.0 221.7L193.0 221.7L193.0 233.1L187.6 233.1L187.6 213.5L192.8 213.5L192.8 216.9L193.0 216.9Q193.7 215.2 195.2 214.2Q196.7 213.2 198.9 213.2L198.9 213.2Q201.0 213.2 202.5 214.1Q204.0 215.0 204.8 216.6Q205.7 218.3 205.7 220.6L205.7 220.6L205.7 233.1L200.2 233.1L200.2 221.6Q200.3 219.8 199.3 218.7Q198.4 217.7 196.7 217.7L196.7 217.7Q195.6 217.7 194.8 218.2Q194.0 218.7 193.5 219.6Q193.0 220.5 193.0 221.7ZM214.5 233.1L209.1 233.1L209.1 213.5L214.5 213.5L214.5 233.1ZM211.8 210.9L211.8 210.9Q210.6 210.9 209.7 210.1Q208.9 209.3 208.9 208.2L208.9 208.2Q208.9 207.0 209.7 206.2Q210.6 205.4 211.8 205.4L211.8 205.4Q213.0 205.4 213.9 206.2Q214.7 207.0 214.7 208.2L214.7 208.2Q214.7 209.3 213.9 210.1Q213.0 210.9 211.8 210.9ZM223.4 221.7L223.4 221.7L223.4 233.1L218.0 233.1L218.0 213.5L223.2 213.5L223.2 216.9L223.4 216.9Q224.0 215.2 225.6 214.2Q227.1 213.2 229.3 213.2L229.3 213.2Q231.3 213.2 232.9 214.1Q234.4 215.0 235.2 216.6Q236.1 218.3 236.1 220.6L236.1 220.6L236.1 233.1L230.6 233.1L230.6 221.6Q230.6 219.8 229.7 218.7Q228.8 217.7 227.1 217.7L227.1 217.7Q226.0 217.7 225.2 218.2Q224.4 218.7 223.9 219.6Q223.4 220.5 223.4 221.7ZM248.3 240.9L248.3 240.9Q245.6 240.9 243.8 240.1Q241.9 239.4 240.8 238.2Q239.6 236.9 239.3 235.4L239.3 235.4L244.4 234.7Q244.6 235.3 245.1 235.8Q245.6 236.3 246.4 236.6Q247.2 237.0 248.4 237.0L248.4 237.0Q250.2 237.0 251.4 236.1Q252.5 235.2 252.5 233.2L252.5 233.2L252.5 229.6L252.3 229.6Q251.9 230.4 251.2 231.2Q250.5 231.9 249.4 232.3Q248.2 232.8 246.7 232.8L246.7 232.8Q244.5 232.8 242.7 231.8Q240.9 230.8 239.8 228.6Q238.7 226.5 238.7 223.2L238.7 223.2Q238.7 219.9 239.8 217.7Q240.9 215.4 242.7 214.3Q244.5 213.2 246.7 213.2L246.7 213.2Q248.3 213.2 249.4 213.8Q250.5 214.3 251.2 215.1Q251.9 216.0 252.3 216.8L252.3 216.8L252.5 216.8L252.5 213.5L257.9 213.5L257.9 233.3Q257.9 235.8 256.7 237.5Q255.4 239.2 253.3 240.0Q251.1 240.9 248.3 240.9ZM248.4 228.7L248.4 228.7Q249.7 228.7 250.6 228.1Q251.6 227.4 252.0 226.2Q252.5 224.9 252.5 223.2L252.5 223.2Q252.5 221.5 252.0 220.2Q251.6 218.9 250.6 218.2Q249.7 217.5 248.4 217.5L248.4 217.5Q247.1 217.5 246.1 218.3Q245.2 219.0 244.8 220.3Q244.3 221.5 244.3 223.2L244.3 223.2Q244.3 224.9 244.8 226.1Q245.2 227.4 246.2 228.0Q247.1 228.7 248.4 228.7Z M267.2 213.5L279.3 213.5L279.3 217.5L267.2 217.5L267.2 213.5ZM275.4 233.1L270.0 233.1L270.0 212.0Q270.0 209.9 270.8 208.5Q271.7 207.1 273.1 206.4Q274.6 205.7 276.4 205.7L276.4 205.7Q277.7 205.7 278.7 205.9Q279.8 206.1 280.3 206.2L280.3 206.2L279.3 210.3Q279.0 210.2 278.5 210.1Q278.1 210.0 277.6 210.0L277.6 210.0Q276.4 210.0 275.9 210.6Q275.4 211.1 275.4 212.1L275.4 212.1L275.4 233.1ZM290.0 233.5L290.0 233.5Q287.0 233.5 284.8 232.2Q282.6 230.9 281.5 228.6Q280.3 226.4 280.3 223.3L280.3 223.3Q280.3 220.3 281.5 218.0Q282.6 215.7 284.8 214.5Q287.0 213.2 290.0 213.2L290.0 213.2Q292.9 213.2 295.1 214.5Q297.3 215.7 298.4 218.0Q299.6 220.3 299.6 223.3L299.6 223.3Q299.6 226.4 298.4 228.6Q297.3 230.9 295.1 232.2Q292.9 233.5 290.0 233.5ZM290.0 229.3L290.0 229.3Q291.3 229.3 292.2 228.5Q293.1 227.7 293.6 226.4Q294.1 225.0 294.1 223.3L294.1 223.3Q294.1 221.6 293.6 220.3Q293.1 218.9 292.2 218.1Q291.3 217.4 290.0 217.4L290.0 217.4Q288.6 217.4 287.7 218.1Q286.8 218.9 286.3 220.3Q285.8 221.6 285.8 223.3L285.8 223.3Q285.8 225.0 286.3 226.4Q286.8 227.7 287.7 228.5Q288.6 229.3 290.0 229.3ZM307.7 233.1L302.3 233.1L302.3 213.5L307.6 213.5L307.6 216.9L307.8 216.9Q308.3 215.1 309.6 214.1Q310.8 213.2 312.5 213.2L312.5 213.2Q312.9 213.2 313.4 213.2Q313.8 213.3 314.2 213.4L314.2 213.4L314.2 218.2Q313.8 218.1 313.1 218.0Q312.4 217.9 311.9 217.9L311.9 217.9Q310.7 217.9 309.7 218.4Q308.8 218.9 308.3 219.9Q307.7 220.8 307.7 222.0L307.7 222.0L307.7 233.1Z M322.7 213.5L334.8 213.5L334.8 217.5L322.7 217.5L322.7 213.5ZM330.9 233.1L325.4 233.1L325.4 212.0Q325.4 209.9 326.3 208.5Q327.1 207.1 328.6 206.4Q330.0 205.7 331.9 205.7L331.9 205.7Q333.1 205.7 334.2 205.9Q335.2 206.1 335.7 206.2L335.7 206.2L334.8 210.3Q334.4 210.2 334.0 210.1Q333.5 210.0 333.0 210.0L333.0 210.0Q331.8 210.0 331.3 210.6Q330.9 211.1 330.9 212.1L330.9 212.1L330.9 233.1ZM342.7 233.1L337.2 233.1L337.2 213.5L342.5 213.5L342.5 216.9L342.7 216.9Q343.2 215.1 344.5 214.1Q345.8 213.2 347.4 213.2L347.4 213.2Q347.8 213.2 348.3 213.2Q348.8 213.3 349.1 213.4L349.1 213.4L349.1 218.2Q348.7 218.1 348.1 218.0Q347.4 217.9 346.8 217.9L346.8 217.9Q345.6 217.9 344.7 218.4Q343.7 218.9 343.2 219.9Q342.7 220.8 342.7 222.0L342.7 222.0L342.7 233.1ZM359.1 233.5L359.1 233.5Q356.0 233.5 353.8 232.2Q351.7 231.0 350.5 228.7Q349.3 226.5 349.3 223.4L349.3 223.4Q349.3 220.3 350.5 218.0Q351.7 215.8 353.8 214.5Q355.9 213.2 358.8 213.2L358.8 213.2Q360.8 213.2 362.5 213.8Q364.1 214.4 365.4 215.7Q366.7 216.9 367.4 218.8Q368.1 220.7 368.1 223.2L368.1 223.2L368.1 224.7L351.5 224.7L351.5 221.3L362.9 221.3Q362.9 220.1 362.4 219.2Q361.9 218.3 361.0 217.8Q360.1 217.3 358.9 217.3L358.9 217.3Q357.7 217.3 356.7 217.8Q355.8 218.4 355.2 219.4Q354.7 220.3 354.7 221.5L354.7 221.5L354.7 224.7Q354.7 226.1 355.2 227.2Q355.8 228.3 356.8 228.8Q357.8 229.4 359.1 229.4L359.1 229.4Q360.0 229.4 360.8 229.2Q361.6 228.9 362.1 228.4Q362.6 227.9 362.9 227.1L362.9 227.1L367.9 227.5Q367.6 229.3 366.4 230.6Q365.2 232.0 363.3 232.7Q361.5 233.5 359.1 233.5ZM379.7 233.5L379.7 233.5Q376.6 233.5 374.5 232.2Q372.3 231.0 371.1 228.7Q369.9 226.5 369.9 223.4L369.9 223.4Q369.9 220.3 371.1 218.0Q372.3 215.8 374.4 214.5Q376.6 213.2 379.4 213.2L379.4 213.2Q381.4 213.2 383.1 213.8Q384.8 214.4 386.0 215.7Q387.3 216.9 388.0 218.8Q388.7 220.7 388.7 223.2L388.7 223.2L388.7 224.7L372.1 224.7L372.1 221.3L383.6 221.3Q383.6 220.1 383.0 219.2Q382.5 218.3 381.6 217.8Q380.7 217.3 379.5 217.3L379.5 217.3Q378.3 217.3 377.3 217.8Q376.4 218.4 375.9 219.4Q375.3 220.3 375.3 221.5L375.3 221.5L375.3 224.7Q375.3 226.1 375.8 227.2Q376.4 228.3 377.4 228.8Q378.4 229.4 379.8 229.4L379.8 229.4Q380.7 229.4 381.4 229.2Q382.2 228.9 382.7 228.4Q383.2 227.9 383.5 227.1L383.5 227.1L388.6 227.5Q388.2 229.3 387.0 230.6Q385.8 232.0 384.0 232.7Q382.1 233.5 379.7 233.5Z M398.3 213.5L410.1 213.5L410.1 217.5L398.3 217.5L398.3 213.5ZM401.0 227.8L401.0 208.8L406.5 208.8L406.5 227.1Q406.5 227.8 406.7 228.2Q406.9 228.6 407.3 228.8Q407.7 229.0 408.3 229.0L408.3 229.0Q408.7 229.0 409.1 228.9Q409.4 228.8 409.6 228.8L409.6 228.8L410.5 232.8Q410.1 233.0 409.4 233.1Q408.6 233.3 407.6 233.4L407.6 233.4Q405.6 233.4 404.1 232.8Q402.6 232.2 401.8 231.0Q401.0 229.7 401.0 227.8L401.0 227.8ZM421.5 233.5L421.5 233.5Q418.5 233.5 416.3 232.2Q414.1 230.9 413.0 228.6Q411.8 226.4 411.8 223.3L411.8 223.3Q411.8 220.3 413.0 218.0Q414.1 215.7 416.3 214.5Q418.5 213.2 421.5 213.2L421.5 213.2Q424.4 213.2 426.6 214.5Q428.8 215.7 429.9 218.0Q431.1 220.3 431.1 223.3L431.1 223.3Q431.1 226.4 429.9 228.6Q428.8 230.9 426.6 232.2Q424.4 233.5 421.5 233.5ZM421.5 229.3L421.5 229.3Q422.8 229.3 423.7 228.5Q424.7 227.7 425.1 226.4Q425.6 225.0 425.6 223.3L425.6 223.3Q425.6 221.6 425.1 220.3Q424.7 218.9 423.7 218.1Q422.8 217.4 421.5 217.4L421.5 217.4Q420.1 217.4 419.2 218.1Q418.3 218.9 417.8 220.3Q417.3 221.6 417.3 223.3L417.3 223.3Q417.3 225.0 417.8 226.4Q418.3 227.7 419.2 228.5Q420.1 229.3 421.5 229.3ZM441.0 233.4L441.0 233.4Q438.8 233.4 437.0 232.3Q435.2 231.1 434.1 228.8Q433.0 226.6 433.0 223.3L433.0 223.3Q433.0 219.9 434.1 217.7Q435.2 215.4 437.0 214.3Q438.8 213.2 441.0 213.2L441.0 213.2Q442.6 213.2 443.8 213.8Q444.9 214.3 445.5 215.1Q446.2 216.0 446.6 216.8L446.6 216.8L446.7 216.8L446.7 206.9L452.2 206.9L452.2 233.1L446.8 233.1L446.8 229.9L446.6 229.9Q446.2 230.8 445.5 231.6Q444.8 232.4 443.7 232.9Q442.6 233.4 441.0 233.4ZM442.7 229.1L442.7 229.1Q444.1 229.1 445.0 228.4Q445.9 227.6 446.4 226.3Q446.9 225.0 446.9 223.3L446.9 223.3Q446.9 221.5 446.4 220.2Q445.9 218.9 445.0 218.2Q444.1 217.5 442.7 217.5L442.7 217.5Q441.4 217.5 440.5 218.3Q439.6 219.0 439.1 220.3Q438.6 221.6 438.6 223.3L438.6 223.3Q438.6 225.0 439.1 226.3Q439.6 227.6 440.5 228.3Q441.4 229.1 442.7 229.1ZM461.3 233.5L461.3 233.5Q459.5 233.5 458.0 232.8Q456.5 232.1 455.7 230.8Q454.8 229.5 454.8 227.6L454.8 227.6Q454.8 226.0 455.4 224.9Q456.0 223.7 457.1 223.1Q458.1 222.4 459.4 222.0Q460.7 221.7 462.2 221.6L462.2 221.6Q463.9 221.4 465.0 221.2Q466.0 221.1 466.5 220.7Q467.0 220.4 467.0 219.8L467.0 219.8L467.0 219.7Q467.0 218.5 466.2 217.8Q465.4 217.2 464.0 217.2L464.0 217.2Q462.6 217.2 461.7 217.8Q460.8 218.5 460.6 219.4L460.6 219.4L455.5 219.0Q455.9 217.2 457.0 215.9Q458.1 214.6 459.9 213.9Q461.7 213.2 464.1 213.2L464.1 213.2Q465.7 213.2 467.2 213.6Q468.7 214.0 469.9 214.8Q471.0 215.6 471.7 216.8Q472.4 218.1 472.4 219.8L472.4 219.8L472.4 233.1L467.2 233.1L467.2 230.4L467.1 230.4Q466.6 231.3 465.8 232.0Q465.0 232.7 463.9 233.1Q462.8 233.5 461.3 233.5ZM462.9 229.7L462.9 229.7Q464.1 229.7 465.0 229.2Q465.9 228.7 466.5 227.9Q467.0 227.1 467.0 226.1L467.0 226.1L467.0 224.0Q466.7 224.2 466.3 224.3Q465.9 224.4 465.3 224.5Q464.8 224.6 464.2 224.7Q463.7 224.8 463.2 224.9L463.2 224.9Q462.3 225.0 461.5 225.3Q460.8 225.6 460.4 226.1Q460.0 226.7 460.0 227.4L460.0 227.4Q460.0 228.5 460.8 229.1Q461.7 229.7 462.9 229.7ZM478.4 240.5L478.4 240.5Q477.3 240.5 476.4 240.3Q475.5 240.1 475.0 239.9L475.0 239.9L476.2 235.8Q477.1 236.1 477.9 236.1Q478.7 236.2 479.3 235.8Q479.8 235.4 480.2 234.5L480.2 234.5L480.5 233.7L473.5 213.5L479.2 213.5L483.3 227.9L483.5 227.9L487.6 213.5L493.3 213.5L485.7 235.2Q485.1 236.8 484.2 238.0Q483.3 239.2 481.8 239.8Q480.4 240.5 478.4 240.5ZM496.0 206.9L501.7 206.9L501.2 225.2L496.5 225.2L496.0 206.9ZM498.9 233.4L498.9 233.4Q497.6 233.4 496.7 232.5Q495.8 231.6 495.8 230.4L495.8 230.4Q495.8 229.1 496.7 228.2Q497.6 227.3 498.9 227.3L498.9 227.3Q500.1 227.3 501.0 228.2Q501.9 229.1 501.9 230.4L501.9 230.4Q501.9 231.2 501.5 231.9Q501.1 232.6 500.4 233.0Q499.7 233.4 498.9 233.4Z "/><mask id="satori_om-id-0-0-1"><rect x="564" y="175" width="274" height="50" fill="#fff"/></mask><mask id="satori_ms-id-0-0-1-0-1" maskUnits="userSpaceOnUse"><rect x="0" y="0" width="870" height="400" fill="#fff"/><path x="564" y="175" width="131" height="50" fill="#000"  stroke-width="-2" d="M570,175 h119 a6,6 0 0 1 6,6 v38 a6,6 0 0 1 -6,6 h-119 a6,6 0 0 1 -6,-6 v-38 a6,6 0 0 1 6,-6"/></mask><mask id="satori_ms-id-0-0-1-0-1-neg" maskUnits="userSpaceOnUse"><path x="564" y="176" width="131" height="50" fill="#fff" stroke="#000" stroke-width="2" d="M570,176 h119 a6,6 0 0 1 6,6 v38 a6,6 0 0 1 -6,6 h-119 a6,6 0 0 1 -6,-6 v-38 a6,6 0 0 1 6,-6"/></mask><defs><filter id="satori_s-id-0-0-1-0-1" x="0%" y="0%" width="100%" height="100%"><feGaussianBlur stdDeviation="1" result="b"/><feFlood flood-color="rgba(0, 0, 0, 0.1)" in="SourceGraphic" result="f"/><feComposite in="f" in2="b" operator="in"/></filter></defs><g mask="url(#satori_ms-id-0-0-1-0-1)" filter="url(#satori_s-id-0-0-1-0-1)" opacity="1"><g mask="url(#satori_ms-id-0-0-1-0-1-neg)"><path x="564" y="176" width="131" height="50" fill="#fff" stroke="#fff" stroke-width="-2" d="M570,176 h119 a6,6 0 0 1 6,6 v38 a6,6 0 0 1 -6,6 h-119 a6,6 0 0 1 -6,-6 v-38 a6,6 0 0 1 6,-6"/></g></g><mask id="satori_ms-id-0-0-1-0-0" maskUnits="userSpaceOnUse"><rect x="0" y="0" width="870" height="400" fill="#fff"/><path x="564" y="175" width="131" height="50" fill="#000"  stroke-width="0" d="M570,175 h119 a6,6 0 0 1 6,6 v38 a6,6 0 0 1 -6,6 h-119 a6,6 0 0 1 -6,-6 v-38 a6,6 0 0 1 6,-6"/></mask><defs><filter id="satori_s-id-0-0-1-0-0" x="-1.717557251908397%" y="-4.5%" width="103.43511450381679%" height="109.00000000000001%"><feGaussianBlur stdDeviation="1.5" result="b"/><feFlood flood-color="rgba(0, 0, 0, 0.1)" in="SourceGraphic" result="f"/><feComposite in="f" in2="b" operator="in"/></filter></defs><g mask="url(#satori_ms-id-0-0-1-0-0)" filter="url(#satori_s-id-0-0-1-0-0)" opacity="1"><path x="564" y="176" width="131" height="50" fill="#fff" stroke="#fff" stroke-width="0" d="M570,176 h119 a6,6 0 0 1 6,6 v38 a6,6 0 0 1 -6,6 h-119 a6,6 0 0 1 -6,-6 v-38 a6,6 0 0 1 6,-6"/></g><mask id="satori_om-id-0-0-1-0"><rect x="564" y="175" width="131" height="50" fill="#fff"/></mask><defs><clipPath id="satori_bc-id-0-0-1-0-0"><path x="564" y="175" width="131" height="50" d="M570,175 h119 a6,6 0 0 1 6,6 v38 a6,6 0 0 1 -6,6 h-119 a6,6 0 0 1 -6,-6 v-38 a6,6 0 0 1 6,-6"/></clipPath></defs><mask id="satori_om-id-0-0-1-0-0"><rect x="565" y="176" width="129" height="48" fill="#fff"/><path width="131" height="50" fill="none" stroke="#000" stroke-width="2" d="M565.757,176.757 A6,6 0 0 1 570,175 h119 a6,6 0 0 1 6,6 v38 a6,6 0 0 1 -6,6 h-119 a6,6 0 0 1 -6,-6 v-38 A6,6 0 0 1 565.757,176.757"/></mask><path x="564" y="175" width="131" height="50" fill="#ef4444" d="M570,175 h119 a6,6 0 0 1 6,6 v38 a6,6 0 0 1 -6,6 h-119 a6,6 0 0 1 -6,-6 v-38 a6,6 0 0 1 6,-6"/><path width="131" height="50" clip-path="url(#satori_bc-id-0-0-1-0-0)" fill="none" stroke="transparent" stroke-width="2" d="M565.757,176.757 A6,6 0 0 1 570,175 h119 a6,6 0 0 1 6,6 v38 a6,6 0 0 1 -6,6 h-119 a6,6 0 0 1 -6,-6 v-38 A6,6 0 0 1 565.757,176.757"/><path fill="#fff" d="M596.2 197.9L593.7 197.9Q593.6 197.5 593.4 197.2Q593.2 196.9 592.9 196.7Q592.6 196.4 592.2 196.3Q591.8 196.2 591.3 196.2L591.3 196.2Q590.4 196.2 589.7 196.6Q589.1 197.1 588.7 197.9Q588.3 198.8 588.3 200.0L588.3 200.0Q588.3 201.2 588.7 202.1Q589.0 202.9 589.7 203.4Q590.4 203.8 591.3 203.8L591.3 203.8Q592.1 203.8 592.7 203.5Q593.3 203.2 593.7 202.7Q594.0 202.1 594.0 201.4L594.0 201.4L594.5 201.4L591.5 201.4L591.5 199.6L596.3 199.6L596.3 201.1Q596.3 202.6 595.7 203.7Q595.0 204.8 593.9 205.4Q592.8 206.0 591.3 206.0L591.3 206.0Q589.7 206.0 588.4 205.3Q587.2 204.5 586.5 203.2Q585.8 201.9 585.8 200.0L585.8 200.0Q585.8 198.6 586.2 197.5Q586.6 196.4 587.4 195.6Q588.1 194.8 589.1 194.4Q590.1 194.0 591.3 194.0L591.3 194.0Q592.2 194.0 593.1 194.3Q593.9 194.6 594.6 195.1Q595.3 195.6 595.7 196.4Q596.1 197.1 596.2 197.9L596.2 197.9ZM602.1 206.0L602.1 206.0Q600.8 206.0 599.8 205.4Q598.8 204.9 598.3 203.9Q597.8 202.9 597.8 201.5L597.8 201.5Q597.8 200.1 598.3 199.1Q598.8 198.1 599.8 197.5Q600.7 197.0 602.0 197.0L602.0 197.0Q602.9 197.0 603.6 197.3Q604.4 197.5 604.9 198.1Q605.5 198.6 605.8 199.5Q606.1 200.3 606.1 201.4L606.1 201.4L606.1 202.1L598.8 202.1L598.8 200.6L603.8 200.6Q603.8 200.1 603.6 199.6Q603.4 199.2 603.0 199.0Q602.6 198.8 602.1 198.8L602.1 198.8Q601.5 198.8 601.1 199.0Q600.7 199.3 600.4 199.7Q600.2 200.1 600.2 200.7L600.2 200.7L600.2 202.1Q600.2 202.7 600.4 203.2Q600.7 203.7 601.1 203.9Q601.5 204.2 602.2 204.2L602.2 204.2Q602.6 204.2 602.9 204.1Q603.2 204.0 603.5 203.7Q603.7 203.5 603.8 203.2L603.8 203.2L606.1 203.3Q605.9 204.1 605.4 204.7Q604.8 205.3 604.0 205.7Q603.2 206.0 602.1 206.0ZM607.1 197.1L612.3 197.1L612.3 198.9L607.1 198.9L607.1 197.1ZM608.3 203.5L608.3 195L610.7 195L610.7 203.1Q610.7 203.5 610.8 203.7Q610.9 203.8 611.1 203.9Q611.3 204.0 611.5 204.0L611.5 204.0Q611.7 204.0 611.9 204.0Q612.0 203.9 612.1 203.9L612.1 203.9L612.5 205.7Q612.3 205.8 612.0 205.8Q611.7 205.9 611.2 205.9L611.2 205.9Q610.3 206.0 609.7 205.7Q609 205.4 608.6 204.9Q608.3 204.3 608.3 203.5L608.3 203.5Z M624.9 199.6L624.9 199.6L622.7 199.7Q622.6 199.4 622.4 199.2Q622.2 199.0 621.9 198.8Q621.6 198.7 621.2 198.7L621.2 198.7Q620.6 198.7 620.3 198.9Q619.9 199.2 619.9 199.6L619.9 199.6Q619.9 199.9 620.1 200.1Q620.4 200.3 621.0 200.4L621.0 200.4L622.6 200.8Q623.8 201.0 624.5 201.6Q625.1 202.2 625.1 203.1L625.1 203.1Q625.1 204.0 624.6 204.6Q624.1 205.3 623.2 205.6Q622.3 206.0 621.2 206.0L621.2 206.0Q619.5 206.0 618.4 205.3Q617.4 204.5 617.2 203.3L617.2 203.3L619.6 203.2Q619.7 203.7 620.1 204.0Q620.6 204.2 621.2 204.2L621.2 204.2Q621.8 204.2 622.2 204.0Q622.6 203.8 622.6 203.4L622.6 203.4Q622.6 203.0 622.3 202.8Q622.1 202.6 621.5 202.5L621.5 202.5L620.0 202.2Q618.7 201.9 618.1 201.3Q617.5 200.7 617.5 199.7L617.5 199.7Q617.5 198.9 617.9 198.2Q618.4 197.6 619.2 197.3Q620.1 197.0 621.2 197.0L621.2 197.0Q622.8 197.0 623.8 197.7Q624.7 198.4 624.9 199.6ZM626 197.1L631.3 197.1L631.3 198.9L626 198.9L626 197.1ZM627.2 203.5L627.2 195L629.6 195L629.6 203.1Q629.6 203.5 629.7 203.7Q629.8 203.8 630.0 203.9Q630.2 204.0 630.4 204.0L630.4 204.0Q630.6 204.0 630.8 204.0Q630.9 203.9 631.0 203.9L631.0 203.9L631.4 205.7Q631.2 205.8 630.9 205.8Q630.6 205.9 630.1 205.9L630.1 205.9Q629.2 206.0 628.6 205.7Q627.9 205.4 627.6 204.9Q627.2 204.3 627.2 203.5L627.2 203.5ZM635.3 206.0L635.3 206.0Q634.5 206.0 633.8 205.7Q633.2 205.4 632.8 204.8Q632.4 204.2 632.4 203.4L632.4 203.4Q632.4 202.7 632.7 202.2Q633.0 201.7 633.4 201.4Q633.9 201.1 634.5 200.9Q635.1 200.8 635.7 200.7L635.7 200.7Q636.5 200.6 636.9 200.5Q637.4 200.5 637.6 200.3Q637.8 200.2 637.8 199.9L637.8 199.9L637.8 199.9Q637.8 199.3 637.5 199.0Q637.1 198.7 636.5 198.7L636.5 198.7Q635.9 198.7 635.5 199.0Q635.1 199.3 635.0 199.8L635.0 199.8L632.7 199.6Q632.9 198.8 633.4 198.2Q633.9 197.6 634.7 197.3Q635.5 197.0 636.5 197.0L636.5 197.0Q637.3 197.0 637.9 197.1Q638.6 197.3 639.1 197.7Q639.6 198.0 639.9 198.6Q640.2 199.2 640.2 199.9L640.2 199.9L640.2 205.8L637.9 205.8L637.9 204.6L637.9 204.6Q637.7 205.0 637.3 205.3Q637.0 205.6 636.5 205.8Q636.0 206.0 635.3 206.0ZM636.0 204.3L636.0 204.3Q636.5 204.3 637.0 204.1Q637.4 203.9 637.6 203.5Q637.8 203.2 637.8 202.7L637.8 202.7L637.8 201.8Q637.7 201.8 637.5 201.9Q637.3 202.0 637.1 202.0Q636.8 202.1 636.6 202.1Q636.3 202.1 636.1 202.2L636.1 202.2Q635.7 202.2 635.4 202.4Q635.1 202.5 634.9 202.7Q634.7 203.0 634.7 203.3L634.7 203.3Q634.7 203.8 635.1 204.1Q635.5 204.3 636.0 204.3ZM644.5 205.8L642.1 205.8L642.1 197.1L644.5 197.1L644.5 198.6L644.6 198.6Q644.8 197.8 645.4 197.4Q645.9 197.0 646.6 197.0L646.6 197.0Q646.8 197.0 647.0 197.0Q647.3 197.0 647.4 197.1L647.4 197.1L647.4 199.2Q647.2 199.1 646.9 199.1Q646.6 199.1 646.4 199.1L646.4 199.1Q645.9 199.1 645.4 199.3Q645.0 199.5 644.8 199.9Q644.5 200.3 644.5 200.9L644.5 200.9L644.5 205.8ZM648.5 197.1L653.7 197.1L653.7 198.9L648.5 198.9L648.5 197.1ZM649.7 203.5L649.7 195L652.1 195L652.1 203.1Q652.1 203.5 652.2 203.7Q652.3 203.8 652.5 203.9Q652.7 204.0 652.9 204.0L652.9 204.0Q653.1 204.0 653.3 204.0Q653.4 203.9 653.5 203.9L653.5 203.9L653.9 205.7Q653.7 205.8 653.4 205.8Q653.1 205.9 652.6 205.9L652.6 205.9Q651.7 206.0 651.0 205.7Q650.4 205.4 650.0 204.9Q649.7 204.3 649.7 203.5L649.7 203.5ZM659.2 206.0L659.2 206.0Q657.8 206.0 656.9 205.4Q655.9 204.9 655.4 203.9Q654.9 202.9 654.9 201.5L654.9 201.5Q654.9 200.1 655.4 199.1Q655.9 198.1 656.9 197.5Q657.8 197.0 659.1 197.0L659.1 197.0Q660.0 197.0 660.7 197.3Q661.5 197.5 662.0 198.1Q662.6 198.6 662.9 199.5Q663.2 200.3 663.2 201.4L663.2 201.4L663.2 202.1L655.8 202.1L655.8 200.6L660.9 200.6Q660.9 200.1 660.7 199.6Q660.5 199.2 660.1 199.0Q659.7 198.8 659.1 198.8L659.1 198.8Q658.6 198.8 658.2 199.0Q657.7 199.3 657.5 199.7Q657.3 200.1 657.3 200.7L657.3 200.7L657.3 202.1Q657.3 202.7 657.5 203.2Q657.7 203.7 658.2 203.9Q658.6 204.2 659.2 204.2L659.2 204.2Q659.6 204.2 660.0 204.1Q660.3 204.0 660.5 203.7Q660.8 203.5 660.9 203.2L660.9 203.2L663.1 203.3Q663.0 204.1 662.5 204.7Q661.9 205.3 661.1 205.7Q660.3 206.0 659.2 206.0ZM668.0 206.0L668.0 206.0Q667 206.0 666.2 205.4Q665.4 204.9 664.9 203.9Q664.5 202.9 664.5 201.5L664.5 201.5Q664.5 200.0 664.9 199.0Q665.4 198.0 666.2 197.5Q667.0 197.0 668.0 197.0L668.0 197.0Q668.7 197.0 669.2 197.2Q669.7 197.5 670.0 197.8Q670.3 198.2 670.5 198.6L670.5 198.6L670.5 198.6L670.5 194.2L673.0 194.2L673.0 205.8L670.6 205.8L670.6 204.4L670.5 204.4Q670.3 204.8 670.0 205.1Q669.7 205.5 669.2 205.7Q668.7 206.0 668.0 206.0ZM668.8 204.0L668.8 204.0Q669.3 204.0 669.8 203.7Q670.2 203.4 670.4 202.8Q670.6 202.2 670.6 201.5L670.6 201.5Q670.6 200.7 670.4 200.1Q670.2 199.5 669.8 199.2Q669.3 198.9 668.8 198.9L668.8 198.9Q668.2 198.9 667.8 199.2Q667.3 199.6 667.1 200.1Q666.9 200.7 666.9 201.5L666.9 201.5Q666.9 202.2 667.1 202.8Q667.4 203.4 667.8 203.7Q668.2 204.0 668.8 204.0Z "/><mask id="satori_ms-id-0-0-1-1-1" maskUnits="userSpaceOnUse"><rect x="0" y="0" width="870" height="400" fill="#fff"/><path x="707" y="175" width="131" height="50" fill="#000"  stroke-width="-2" d="M713,175 h119 a6,6 0 0 1 6,6 v38 a6,6 0 0 1 -6,6 h-119 a6,6 0 0 1 -6,-6 v-38 a6,6 0 0 1 6,-6"/></mask><mask id="satori_ms-id-0-0-1-1-1-neg" maskUnits="userSpaceOnUse"><path x="707" y="176" width="131" height="50" fill="#fff" stroke="#000" stroke-width="2" d="M713,176 h119 a6,6 0 0 1 6,6 v38 a6,6 0 0 1 -6,6 h-119 a6,6 0 0 1 -6,-6 v-38 a6,6 0 0 1 6,-6"/></mask><defs><filter id="satori_s-id-0-0-1-1-1" x="0%" y="0%" width="100%" height="100%"><feGaussianBlur stdDeviation="1" result="b"/><feFlood flood-color="rgba(0, 0, 0, 0.1)" in="SourceGraphic" result="f"/><feComposite in="f" in2="b" operator="in"/></filter></defs><g mask="url(#satori_ms-id-0-0-1-1-1)" filter="url(#satori_s-id-0-0-1-1-1)" opacity="1"><g mask="url(#satori_ms-id-0-0-1-1-1-neg)"><path x="707" y="176" width="131" height="50" fill="#fff" stroke="#fff" stroke-width="-2" d="M713,176 h119 a6,6 0 0 1 6,6 v38 a6,6 0 0 1 -6,6 h-119 a6,6 0 0 1 -6,-6 v-38 a6,6 0 0 1 6,-6"/></g></g><mask id="satori_ms-id-0-0-1-1-0" maskUnits="userSpaceOnUse"><rect x="0" y="0" width="870" height="400" fill="#fff"/><path x="707" y="175" width="131" height="50" fill="#000"  stroke-width="0" d="M713,175 h119 a6,6 0 0 1 6,6 v38 a6,6 0 0 1 -6,6 h-119 a6,6 0 0 1 -6,-6 v-38 a6,6 0 0 1 6,-6"/></mask><defs><filter id="satori_s-id-0-0-1-1-0" x="-1.717557251908397%" y="-4.5%" width="103.43511450381679%" height="109.00000000000001%"><feGaussianBlur stdDeviation="1.5" result="b"/><feFlood flood-color="rgba(0, 0, 0, 0.1)" in="SourceGraphic" result="f"/><feComposite in="f" in2="b" operator="in"/></filter></defs><g mask="url(#satori_ms-id-0-0-1-1-0)" filter="url(#satori_s-id-0-0-1-1-0)" opacity="1"><path x="707" y="176" width="131" height="50" fill="#fff" stroke="#fff" stroke-width="0" d="M713,176 h119 a6,6 0 0 1 6,6 v38 a6,6 0 0 1 -6,6 h-119 a6,6 0 0 1 -6,-6 v-38 a6,6 0 0 1 6,-6"/></g><mask id="satori_om-id-0-0-1-1"><rect x="707" y="175" width="131" height="50" fill="#fff"/></mask><defs><clipPath id="satori_bc-id-0-0-1-1-0"><path x="707" y="175" width="131" height="50" d="M713,175 h119 a6,6 0 0 1 6,6 v38 a6,6 0 0 1 -6,6 h-119 a6,6 0 0 1 -6,-6 v-38 a6,6 0 0 1 6,-6"/></clipPath></defs><mask id="satori_om-id-0-0-1-1-0"><rect x="708" y="176" width="129" height="48" fill="#fff"/><path width="131" height="50" fill="none" stroke="#000" stroke-width="2" d="M708.757,176.757 A6,6 0 0 1 713,175 h119 a6,6 0 0 1 6,6 v38 a6,6 0 0 1 -6,6 h-119 a6,6 0 0 1 -6,-6 v-38 A6,6 0 0 1 708.757,176.757"/></mask><path x="707" y="175" width="131" height="50" fill="#fff" d="M713,175 h119 a6,6 0 0 1 6,6 v38 a6,6 0 0 1 -6,6 h-119 a6,6 0 0 1 -6,-6 v-38 a6,6 0 0 1 6,-6"/><path width="131" height="50" clip-path="url(#satori_bc-id-0-0-1-1-0)" fill="none" stroke="transparent" stroke-width="2" d="M708.757,176.757 A6,6 0 0 1 713,175 h119 a6,6 0 0 1 6,6 v38 a6,6 0 0 1 -6,6 h-119 a6,6 0 0 1 -6,-6 v-38 A6,6 0 0 1 708.757,176.757"/><path fill="#000" d="M736.5 205.8L729.0 205.8L729.0 194.2L731.5 194.2L731.5 203.8L736.5 203.8L736.5 205.8ZM742.0 206.0L742.0 206.0Q740.7 206.0 739.7 205.4Q738.7 204.9 738.2 203.9Q737.7 202.9 737.7 201.5L737.7 201.5Q737.7 200.1 738.2 199.1Q738.7 198.1 739.7 197.5Q740.6 197.0 741.9 197.0L741.9 197.0Q742.8 197.0 743.5 197.3Q744.3 197.5 744.8 198.1Q745.4 198.6 745.7 199.5Q746.0 200.3 746.0 201.4L746.0 201.4L746.0 202.1L738.7 202.1L738.7 200.6L743.8 200.6Q743.8 200.1 743.5 199.6Q743.3 199.2 742.9 199.0Q742.5 198.8 742.0 198.8L742.0 198.8Q741.4 198.8 741.0 199.0Q740.6 199.3 740.3 199.7Q740.1 200.1 740.1 200.7L740.1 200.7L740.1 202.1Q740.1 202.7 740.3 203.2Q740.6 203.7 741.0 203.9Q741.5 204.2 742.1 204.2L742.1 204.2Q742.5 204.2 742.8 204.1Q743.1 204.0 743.4 203.7Q743.6 203.5 743.7 203.2L743.7 203.2L746.0 203.3Q745.8 204.1 745.3 204.7Q744.8 205.3 743.9 205.7Q743.1 206.0 742.0 206.0ZM750.1 206.0L750.1 206.0Q749.3 206.0 748.6 205.7Q748.0 205.4 747.6 204.8Q747.2 204.2 747.2 203.4L747.2 203.4Q747.2 202.7 747.5 202.2Q747.7 201.7 748.2 201.4Q748.7 201.1 749.2 200.9Q749.8 200.8 750.5 200.7L750.5 200.7Q751.2 200.6 751.7 200.5Q752.2 200.5 752.4 200.3Q752.6 200.2 752.6 199.9L752.6 199.9L752.6 199.9Q752.6 199.3 752.3 199.0Q751.9 198.7 751.3 198.7L751.3 198.7Q750.6 198.7 750.3 199.0Q749.9 199.3 749.7 199.8L749.7 199.8L747.5 199.6Q747.7 198.8 748.2 198.2Q748.7 197.6 749.5 197.3Q750.3 197.0 751.3 197.0L751.3 197.0Q752.0 197.0 752.7 197.1Q753.4 197.3 753.9 197.7Q754.4 198.0 754.7 198.6Q755.0 199.2 755.0 199.9L755.0 199.9L755.0 205.8L752.7 205.8L752.7 204.6L752.6 204.6Q752.4 205.0 752.1 205.3Q751.7 205.6 751.2 205.8Q750.7 206.0 750.1 206.0ZM750.8 204.3L750.8 204.3Q751.3 204.3 751.7 204.1Q752.1 203.9 752.4 203.5Q752.6 203.2 752.6 202.7L752.6 202.7L752.6 201.8Q752.5 201.8 752.3 201.9Q752.1 202.0 751.9 202.0Q751.6 202.1 751.4 202.1Q751.1 202.1 750.9 202.2L750.9 202.2Q750.5 202.2 750.2 202.4Q749.9 202.5 749.7 202.7Q749.5 203.0 749.5 203.3L749.5 203.3Q749.5 203.8 749.9 204.1Q750.2 204.3 750.8 204.3ZM759.3 205.8L756.9 205.8L756.9 197.1L759.2 197.1L759.2 198.6L759.3 198.6Q759.6 197.8 760.1 197.4Q760.7 197.0 761.4 197.0L761.4 197.0Q761.6 197.0 761.8 197.0Q762.0 197.0 762.2 197.1L762.2 197.1L762.2 199.2Q762.0 199.1 761.7 199.1Q761.4 199.1 761.2 199.1L761.2 199.1Q760.6 199.1 760.2 199.3Q759.8 199.5 759.6 199.9Q759.3 200.3 759.3 200.9L759.3 200.9L759.3 205.8ZM765.9 200.8L765.9 200.8L765.9 205.8L763.4 205.8L763.4 197.1L765.7 197.1L765.7 198.6L765.8 198.6Q766.1 197.9 766.8 197.4Q767.5 197.0 768.5 197.0L768.5 197.0Q769.4 197.0 770.1 197.4Q770.7 197.8 771.1 198.5Q771.5 199.2 771.5 200.3L771.5 200.3L771.5 205.8L769.1 205.8L769.1 200.7Q769.1 199.9 768.6 199.4Q768.2 199.0 767.5 199.0L767.5 199.0Q767.0 199.0 766.6 199.2Q766.3 199.4 766.1 199.8Q765.9 200.2 765.9 200.8Z M779.5 205.8L777.1 205.8L777.1 197.1L779.4 197.1L779.4 198.6L779.5 198.6Q779.8 197.9 780.4 197.4Q781.0 197.0 781.9 197.0L781.9 197.0Q782.8 197.0 783.5 197.4Q784.1 197.9 784.3 198.6L784.3 198.6L784.4 198.6Q784.7 197.9 785.4 197.4Q786.1 197.0 787.0 197.0L787.0 197.0Q788.2 197.0 789.0 197.8Q789.8 198.5 789.8 199.9L789.8 199.9L789.8 205.8L787.4 205.8L787.4 200.4Q787.4 199.7 787.0 199.3Q786.6 199.0 786.0 199.0L786.0 199.0Q785.3 199.0 785.0 199.4Q784.6 199.8 784.6 200.5L784.6 200.5L784.6 205.8L782.3 205.8L782.3 200.4Q782.3 199.7 781.9 199.4Q781.5 199.0 780.9 199.0L780.9 199.0Q780.5 199.0 780.2 199.2Q779.9 199.4 779.7 199.7Q779.5 200.1 779.5 200.6L779.5 200.6L779.5 205.8ZM795.6 206.0L795.6 206.0Q794.3 206.0 793.3 205.4Q792.4 204.9 791.9 203.8Q791.3 202.8 791.3 201.5L791.3 201.5Q791.3 200.1 791.9 199.1Q792.4 198.1 793.3 197.5Q794.3 197.0 795.6 197.0L795.6 197.0Q796.9 197.0 797.9 197.5Q798.9 198.1 799.4 199.1Q799.9 200.1 799.9 201.5L799.9 201.5Q799.9 202.8 799.4 203.8Q798.9 204.9 797.9 205.4Q796.9 206.0 795.6 206.0ZM795.6 204.1L795.6 204.1Q796.2 204.1 796.6 203.8Q797.0 203.4 797.3 202.8Q797.5 202.2 797.5 201.5L797.5 201.5Q797.5 200.7 797.3 200.1Q797.0 199.5 796.6 199.2Q796.2 198.8 795.6 198.8L795.6 198.8Q795.0 198.8 794.6 199.2Q794.2 199.5 794.0 200.1Q793.8 200.7 793.8 201.5L793.8 201.5Q793.8 202.2 794.0 202.8Q794.2 203.4 794.6 203.8Q795.0 204.1 795.6 204.1ZM803.9 205.8L801.5 205.8L801.5 197.1L803.8 197.1L803.8 198.6L803.9 198.6Q804.2 197.8 804.7 197.4Q805.3 197.0 806.0 197.0L806.0 197.0Q806.2 197.0 806.4 197.0Q806.6 197.0 806.8 197.1L806.8 197.1L806.8 199.2Q806.6 199.1 806.3 199.1Q806.0 199.1 805.8 199.1L805.8 199.1Q805.2 199.1 804.8 199.3Q804.4 199.5 804.2 199.9Q803.9 200.3 803.9 200.9L803.9 200.9L803.9 205.8ZM811.6 206.0L811.6 206.0Q810.3 206.0 809.3 205.4Q808.3 204.9 807.8 203.9Q807.3 202.9 807.3 201.5L807.3 201.5Q807.3 200.1 807.8 199.1Q808.3 198.1 809.3 197.5Q810.2 197.0 811.5 197.0L811.5 197.0Q812.4 197.0 813.1 197.3Q813.9 197.5 814.4 198.1Q815.0 198.6 815.3 199.5Q815.6 200.3 815.6 201.4L815.6 201.4L815.6 202.1L808.2 202.1L808.2 200.6L813.3 200.6Q813.3 200.1 813.1 199.6Q812.9 199.2 812.5 199.0Q812.1 198.8 811.6 198.8L811.6 198.8Q811.0 198.8 810.6 199.0Q810.2 199.3 809.9 199.7Q809.7 200.1 809.7 200.7L809.7 200.7L809.7 202.1Q809.7 202.7 809.9 203.2Q810.2 203.7 810.6 203.9Q811.0 204.2 811.6 204.2L811.6 204.2Q812.1 204.2 812.4 204.1Q812.7 204.0 813.0 203.7Q813.2 203.5 813.3 203.2L813.3 203.2L815.6 203.3Q815.4 204.1 814.9 204.7Q814.3 205.3 813.5 205.7Q812.7 206.0 811.6 206.0Z "/></svg>