<svg xmlns="http://www.w3.org/2000/svg" version="1.1" xmlns:xlink="http://www.w3.org/1999/xlink" xmlns:svgjs="http://svgjs.dev/svgjs" width="100%" height="100%" viewBox="0 0 1000 600"><rect width="1000" height="600" x="0" y="0" fill="#ffffff"/><g><circle r="166.66666666666666" cx="341.3572794596354" cy="363.5794821198012" fill="#161b21" transform="matrix(0.7155507953748237,0,0,0.7155507953748236,0,39.840408922948455)"/><path d="M347.3664301407496 288.58040255230935Q364.9626385443056 288.49414662876256 383.76642987751745 296.37218764604086L383.76642987751745 296.37218764604086L378.8210902608318 314.65844343797164Q360.01729892761995 307.3841938855212 346.963902497531 307.3841938855212L346.963902497531 307.3841938855212Q333.7379942203484 307.3841938855212 325.9462091266169 312.53079732381616Q318.15442403288546 317.70615273662673 318.15442403288546 326.9067845816234L318.15442403288546 326.9067845816234Q318.15442403288546 333.5772426692459 320.9433655609 337.9475427956193Q323.7323070889146 342.3465948965083 330.4027651765372 345.88308776192883Q337.07322326415965 349.4195806273494 349.00529268813966 352.9848254672856L349.00529268813966 352.9848254672856Q370.3105058042099 359.1377480136271 379.30987382759724 369.2009390940921Q388.3092418509845 379.2641301745571 388.3092418509845 396.429058960379L388.3092418509845 396.429058960379Q388.3092418509845 416.1529134780904 375.0833335738019 427.36618353918Q361.82867332210367 438.5794536002697 338.68333383703407 438.5794536002697L338.68333383703407 438.5794536002697Q318.7582154977133 438.5794536002697 294.40529308298795 428.28624672367965L294.40529308298795 428.28624672367965L300.38570378223574 410.28751067690513Q314.01413970263695 415.63537793680933 322.0934445415246 417.7055201019336Q330.2015013549278 419.77566226705784 338.68333383703407 419.77566226705784L338.68333383703407 419.77566226705784Q352.1392579103416 419.77566226705784 359.9022910295575 413.5652357716851Q367.694076123289 407.35480927631244 367.694076123289 396.63032278198824L367.694076123289 396.63032278198824Q367.694076123289 389.7586008727564 364.76137472269636 385.2157888992893Q361.82867332210367 380.6729769258223 354.6981836422313 377.0214761623392Q347.56769396235893 373.39872737337186 334.5430495067856 369.8622345079513L334.5430495067856 369.8622345079513Q314.61793116746486 364.4856152735313 306.02109078729615 355.0837196069255Q297.45300238164305 345.6818239403196 297.45300238164305 329.72447808415353L297.45300238164305 329.72447808415353Q297.45300238164305 310.20188738805143 310.7364146078569 299.3911449701804Q324.0198268340707 288.58040255230935 347.3664301407496 288.58040255230935L347.3664301407496 288.58040255230935Z " fill="#ffffff" transform="matrix(0.7155507953748237,0,0,0.7155507953748236,0,39.840408922948455)"/><path d="M631.6810717451742 288.58017565311195Q645.0785564174234 288.5145017086402 659.3954763122782 294.51272197039884L659.3954763122782 294.51272197039884L655.6301701625611 308.43559819842267Q641.3132502677064 302.8970955479666 631.374593337639 302.8970955479666L631.374593337639 302.8970955479666Q621.3045885186281 302.8970955479666 615.3720422013412 306.8156409014514Q609.4394958840543 310.75607756976 609.4394958840543 317.7612983134198L609.4394958840543 317.7612983134198Q609.4394958840543 322.8400833525731 611.5629534219761 326.1675632058115Q613.686410959898 329.5169343738739 618.7651959990515 332.2095660972181Q623.8439810382047 334.9021978205623 632.9288766901386 337.6167208587305L632.9288766901386 337.6167208587305Q649.1503409746758 342.301462231053 656.002322514568 349.96342241943086Q662.8543040544603 357.62538260780883 662.8543040544603 370.6944975576991L662.8543040544603 370.6944975576991Q662.8543040544603 385.7119395269198 652.7842992354492 394.2495523082552Q642.6924031016144 402.7871650895906 625.0698946683452 402.7871650895906L625.0698946683452 402.7871650895906Q609.8992134953569 402.7871650895906 591.3572698394825 394.95007438262115L591.3572698394825 394.95007438262115L595.9106633228613 381.2461113028367Q606.2871465494075 385.317895860089 612.4386060149336 386.89407052741234Q618.6119567952838 388.4702451947358 625.0698946683452 388.4702451947358L625.0698946683452 388.4702451947358Q635.3150300059476 388.4702451947358 641.2256850084107 383.7417211927655Q647.1582313256974 379.0131971907951 647.1582313256974 370.8477367614667L647.1582313256974 370.8477367614667Q647.1582313256974 365.61571251854576 644.925317213656 362.1568847763637Q642.6924031016144 358.69805703418166 637.2633570252781 355.9178600515417Q631.8343109489417 353.1595543837257 621.9175453336983 350.4669226603815L621.9175453336983 350.4669226603815Q606.7468641607101 346.37324678830527 600.201361028353 339.21478684087793Q593.6777492108197 332.0563268934506 593.6777492108197 319.90664716616556L593.6777492108197 319.90664716616556Q593.6777492108197 305.0424444007125 603.7915366594787 296.8113100269122Q613.9053241081374 288.58017565311195 631.6810717451742 288.58017565311195L631.6810717451742 288.58017565311195ZM714.583480983423 318.9872119435602Q727.2804435813065 318.9872119435602 738.9704056972887 325.7516282241567L738.9704056972887 325.7516282241567L733.8259467136635 337.6167208587305Q723.8872897835962 332.0563268934506 714.583480983423 332.0563268934506L714.583480983423 332.0563268934506Q703.2656712194477 332.0563268934506 697.1142117539214 339.52126524841304Q690.9408609735713 346.9862036033755 690.9408609735713 360.77773194245566L690.9408609735713 360.77773194245566Q690.9408609735713 374.6349342260077 697.267450957689 381.94663337720266Q703.5721496269828 389.2583325283976 715.5029162060283 389.2583325283976L715.5029162060283 389.2583325283976Q719.8811791708157 389.2583325283976 725.3540078768 387.9010710093135Q730.8049452679602 386.5438094902294 735.8180563626418 384.39846063748354L735.8180563626418 384.39846063748354L739.8241669754221 396.1759880127616Q733.8259467136635 399.0218589398734 726.8863999144755 400.6855988664926Q719.9687444301115 402.32744747828787 713.7953936497613 402.32744747828787L713.7953936497613 402.32744747828787Q695.6474936607176 402.32744747828787 685.7088367306503 391.46935532561514Q675.7920711154069 380.6331544877665 675.7920711154069 360.77773194245566L675.7920711154069 360.77773194245566Q675.7920711154069 341.07554860091255 686.0153151381854 330.0204346148244Q696.2604504757879 318.9872119435602 714.583480983423 318.9872119435602L714.583480983423 318.9872119435602ZM769.6839203952721 331.7498484859154Q773.9089441562919 325.4451498166216 779.6006860105155 322.20523522267894Q785.314319179563 318.9872119435602 792.0787354601595 318.9872119435602L792.0787354601595 318.9872119435602Q796.6102376287145 318.9872119435602 802.6303492052971 320.6728431850034L802.6303492052971 320.6728431850034L799.9158261671289 335.2305675429214Q792.2319746639271 333.6762841904219 789.5393429405829 333.6106102459501L789.5393429405829 333.6106102459501Q782.7530353451624 333.6106102459501 778.3309897507271 336.1500027655267Q773.9089441562919 338.68939528510344 770.756594821645 344.381137139327L770.756594821645 344.381137139327L770.756594821645 401.40801225568254L755.9799573154877 401.40801225568254L755.9799573154877 320.3663647774683L767.8231586352375 320.3663647774683L769.6839203952721 331.7498484859154ZM816.0059425627225 305.58972727131084L816.0059425627225 290.4190460983226L830.7825800688798 290.4190460983226L830.7825800688798 305.58972727131084L816.0059425627225 305.58972727131084ZM816.0059425627225 401.40801225568254L816.0059425627225 320.3663647774683L830.7825800688798 320.3663647774683L830.7825800688798 401.40801225568254L816.0059425627225 401.40801225568254ZM894.8146759288952 319.14045114732784Q911.8242275470941 319.14045114732784 921.1061450324434 329.6701735776414Q930.3661712029685 340.221787322779 930.3661712029685 359.617492256787L930.3661712029685 359.617492256787Q930.3661712029685 379.77939320963293 919.3767311613523 391.2942248070237Q908.365399804912 402.7871650895906 888.8164556671364 402.7871650895906L888.8164556671364 402.7871650895906Q881.4390825714697 402.7871650895906 871.5879909006982 400.6418162368447L871.5879909006982 400.6418162368447L871.5879909006982 438.57946482672725L856.8113533945408 438.57946482672725L856.8113533945408 320.5196039812358L868.6545547142906 320.5196039812358L870.646664363269 330.61150011507067Q875.8786886061898 324.59138853848805 881.7017783493569 321.87686550031987Q887.5029767777003 319.14045114732784 894.8146759288952 319.14045114732784L894.8146759288952 319.14045114732784ZM888.6632164633689 389.7180501397002Q901.2945051167804 389.7180501397002 908.2778345456164 381.79339417343505Q915.2830552892761 373.84684689234604 915.2830552892761 359.617492256787L915.2830552892761 359.617492256787Q915.2830552892761 346.52648599207276 909.6788786943483 339.36802604464543Q904.0528107845965 332.2095660972181 893.829566761818 332.2095660972181L893.829566761818 332.2095660972181Q885.8173455362571 332.2095660972181 880.0380384227377 336.2156767099986Q874.2806226240424 340.221787322779 871.5879909006982 347.99320408527655L871.5879909006982 347.99320408527655L871.5879909006982 387.397570768363Q878.0459287737596 388.92996280603853 881.045038904639 389.32400647286937Q884.0441490355182 389.7180501397002 888.6632164633689 389.7180501397002L888.6632164633689 389.7180501397002ZM994.4858323222796 398.7153805323383Q985.335262725874 402.32744747828787 977.4762807040808 402.32744747828787L977.4762807040808 402.32744747828787Q965.7863185880984 402.32744747828787 959.6567504373962 396.2854445868813Q953.5490736015178 390.2434416954747 953.5490736015178 378.5534795794925L953.5490736015178 378.5534795794925L953.5490736015178 333.1508926346474L939.3853929104306 333.1508926346474L939.3853929104306 320.3663647774683L954.3152696203556 320.3663647774683L957.4676189550024 297.20535369374306L968.3913850521469 297.20535369374306L968.3913850521469 320.3663647774683L993.1066794883717 320.3663647774683L993.1066794883717 333.1508926346474L968.3913850521469 333.1508926346474L968.3913850521469 376.16732626368326Q968.3913850521469 383.08498174804737 971.127799405139 386.0840918789267Q973.8642137581311 389.08320200980603 980.168912427425 389.08320200980603L980.168912427425 389.08320200980603Q985.7074150778809 389.08320200980603 991.7056353396397 387.09109236082776L991.7056353396397 387.09109236082776L994.4858323222796 398.7153805323383ZM1024.1047812790662 320.3663647774683L1024.1047812790662 372.7084985215013Q1024.1047812790662 381.5525897103718 1027.8044134843117 385.6243742676241Q1031.5040456895567 389.7180501397002 1039.7351800633573 389.7180501397002L1039.7351800633573 389.7180501397002Q1046.674726862545 389.7180501397002 1052.9794255318388 386.47813554575754Q1059.2841242011327 383.23822095181487 1063.3559087583849 377.78728356065466L1063.3559087583849 377.78728356065466L1063.3559087583849 320.3663647774683L1078.1325462645423 320.3663647774683L1078.1325462645423 401.40801225568254L1066.2236710003208 401.40801225568254L1064.2972352958145 390.2434416954747Q1053.5923823469093 402.8747303488863 1036.8893091362454 402.7871650895906L1036.8893091362454 402.7871650895906Q1023.3385852602285 402.7871650895906 1016.3114732017447 395.40979199392376Q1009.262469828437 388.0105275834332 1009.262469828437 373.84684689234604L1009.262469828437 373.84684689234604L1009.262469828437 320.3663647774683L1024.1047812790662 320.3663647774683ZM1117.6901521513964 331.7498484859154Q1121.9370672272403 325.4451498166216 1127.6288090814637 322.20523522267894Q1133.3205509356872 318.9872119435602 1140.1068585311077 318.9872119435602L1140.1068585311077 318.9872119435602Q1144.6383606996626 318.9872119435602 1150.6365809614213 320.6728431850034L1150.6365809614213 320.6728431850034L1147.943949238077 335.2305675429214Q1140.2600977348752 333.6762841904219 1137.567466011531 333.6106102459501L1137.567466011531 333.6106102459501Q1130.7811584161104 333.6106102459501 1126.3591128216754 336.1500027655267Q1121.9370672272403 338.68939528510344 1118.784717892593 344.381137139327L1118.784717892593 344.381137139327L1118.784717892593 401.40801225568254L1104.0080803864357 401.40801225568254L1104.0080803864357 320.3663647774683L1115.8512817061855 320.3663647774683L1117.6901521513964 331.7498484859154ZM1191.266861274648 319.14045114732784Q1206.4375424476361 319.14045114732784 1214.6248941917888 327.1088897432408Q1222.8341372507653 335.0773283391539 1222.8341372507653 349.85396584531117L1222.8341372507653 349.85396584531117L1222.8341372507653 401.40801225568254L1211.450653542318 401.40801225568254L1209.2834133747483 391.9509642517418Q1197.4402120549983 402.9404042933581 1182.6635745488409 402.9404042933581L1182.6635745488409 402.9404042933581Q1170.492003506732 402.9404042933581 1163.3335435593046 396.394901161001Q1156.1750836118772 389.8712893434678 1156.1750836118772 378.8599579870276L1156.1750836118772 378.8599579870276Q1156.1750836118772 366.0754301298485 1166.639132097719 358.91697018242104Q1177.1250718983847 351.7585102349937 1196.0391679062664 351.7585102349937L1196.0391679062664 351.7585102349937L1207.969934485312 351.7585102349937L1207.969934485312 349.5255961229522Q1207.356977670242 332.2095660972181 1190.194186848275 332.2095660972181L1190.194186848275 332.2095660972181Q1184.9621626053545 332.2095660972181 1178.4166594729973 333.80763207936553Q1171.87115634064 335.383806746689 1165.2599792638111 338.0764384700332L1165.2599792638111 338.0764384700332L1161.1881947065588 326.0581066316918Q1168.2590893946904 322.7525180932774 1176.1618540461318 320.9355389628907Q1184.0427273827488 319.14045114732784 1191.266861274648 319.14045114732784L1191.266861274648 319.14045114732784ZM1196.9804944436955 363.07631999896904Q1184.6556841978193 363.07631999896904 1177.8037026579268 367.12621324139747Q1170.9517211180346 371.1542151690018 1170.9517211180346 378.4002403757249L1170.9517211180346 378.4002403757249Q1170.9517211180346 383.93874302618093 1174.7389185825757 386.89407052741234Q1178.504224732293 389.8712893434678 1185.2686410128895 389.8712893434678L1185.2686410128895 389.8712893434678Q1191.7484702007748 389.8712893434678 1197.899929666301 387.1348749904757Q1204.0513891318274 384.39846063748354 1207.969934485312 379.77939320963293L1207.969934485312 379.77939320963293L1207.969934485312 363.07631999896904L1196.9804944436955 363.07631999896904Z " fill="#161b21" transform="matrix(0.7155507953748237,0,0,0.7155507953748236,0,39.840408922948455)"/></g></svg>