<svg width="236" height="60" viewBox="0 0 236 60" fill="none" xmlns="http://www.w3.org/2000/svg">
<path d="M0 10C0 4.47715 4.47715 0 10 0H50C55.5228 0 60 4.47715 60 10V40C60 51.0457 51.0457 60 40 60H10C4.47715 60 0 55.5228 0 50V10Z" fill="#262626"/>
<rect x="26.0453" y="6.69603" width="7.90945" height="47.7533" rx="1" fill="#F9F9F9"/>
<rect x="15.4194" y="16.4758" width="29.0812" height="7.84141" rx="1" fill="#F9F9F9"/>
<path d="M92.5619 44.396C91.2659 44.396 90.1019 44.288 89.0699 44.072C88.0379 43.856 86.8859 43.568 85.6139 43.208C84.7739 42.968 84.2099 42.836 83.9219 42.812L84.2459 36.152H87.1619L87.9539 40.796C88.2659 41.132 88.8179 41.432 89.6099 41.696C90.4259 41.96 91.3499 42.092 92.3819 42.092C93.9899 42.092 95.1899 41.744 95.9819 41.048C96.7979 40.328 97.2059 39.332 97.2059 38.06C97.2059 37.22 96.9659 36.5 96.4859 35.9C96.0059 35.276 95.3459 34.724 94.5059 34.244C93.6659 33.74 92.5139 33.164 91.0499 32.516C89.0579 31.604 87.4019 30.524 86.0819 29.276C84.7859 28.004 84.1379 26.288 84.1379 24.128C84.1379 22.784 84.4859 21.572 85.1819 20.492C85.8779 19.388 86.9099 18.524 88.2779 17.9C89.6699 17.252 91.3619 16.928 93.3539 16.928C94.5299 16.928 95.5619 17.012 96.4499 17.18C97.3619 17.348 98.3459 17.576 99.4019 17.864C100.026 18.032 100.494 18.14 100.806 18.188L100.59 24.488H97.7099L96.9539 20.06C96.7379 19.844 96.3059 19.64 95.6579 19.448C95.0099 19.232 94.2899 19.124 93.4979 19.124C92.0579 19.124 90.9659 19.46 90.2219 20.132C89.5019 20.78 89.1419 21.656 89.1419 22.76C89.1419 23.648 89.4059 24.416 89.9339 25.064C90.4859 25.712 91.1459 26.264 91.9139 26.72C92.6819 27.152 93.8939 27.776 95.5499 28.592C96.8939 29.24 98.0459 29.876 99.0059 30.5C99.9659 31.124 100.794 31.94 101.49 32.948C102.186 33.932 102.534 35.096 102.534 36.44C102.534 37.76 102.198 39.02 101.526 40.22C100.878 41.42 99.7979 42.416 98.2859 43.208C96.7979 44 94.8899 44.396 92.5619 44.396ZM102.913 34.1C102.913 32.036 103.321 30.2 104.137 28.592C104.977 26.984 106.165 25.736 107.701 24.848C109.261 23.936 111.073 23.48 113.137 23.48C114.097 23.48 114.925 23.552 115.621 23.696C116.317 23.84 117.097 24.032 117.961 24.272L119.005 24.56L118.789 30.716H115.657L114.757 26.756C114.613 26.132 113.905 25.82 112.633 25.82C111.289 25.82 110.233 26.408 109.465 27.584C108.721 28.76 108.337 30.596 108.313 33.092C108.313 35.732 108.769 37.76 109.681 39.176C110.593 40.568 111.805 41.264 113.317 41.264C115.141 41.264 116.821 40.772 118.357 39.788L119.185 41.66C118.561 42.332 117.601 42.956 116.305 43.532C115.033 44.108 113.653 44.396 112.165 44.396C109.093 44.396 106.777 43.448 105.217 41.552C103.681 39.656 102.913 37.172 102.913 34.1ZM120.249 41.876L122.625 41.588V27.404L120.321 26.756V24.272L125.901 23.516H126.009L126.909 24.236V25.028L126.801 27.944H126.909C127.077 27.464 127.473 26.876 128.097 26.18C128.721 25.46 129.501 24.836 130.437 24.308C131.397 23.756 132.429 23.48 133.533 23.48C134.061 23.48 134.517 23.552 134.901 23.696V29.096C134.181 28.592 133.305 28.34 132.273 28.34C130.521 28.34 128.997 28.808 127.701 29.744V41.552L131.877 41.876V44H120.249V41.876ZM139.679 20.708C138.815 20.708 138.131 20.456 137.627 19.952C137.123 19.448 136.871 18.8 136.871 18.008C136.871 17.096 137.159 16.34 137.735 15.74C138.311 15.14 139.079 14.84 140.039 14.84C140.999 14.84 141.731 15.104 142.235 15.632C142.739 16.136 142.991 16.772 142.991 17.54C142.991 18.5 142.703 19.268 142.127 19.844C141.551 20.42 140.747 20.708 139.715 20.708H139.679ZM137.771 27.404L135.215 26.72V24.308L141.803 23.516H141.875L142.883 24.236V41.552L145.295 41.84V44H135.251V41.84L137.771 41.516V27.404ZM165.983 33.344C165.983 35.36 165.563 37.208 164.723 38.888C163.907 40.568 162.695 41.912 161.087 42.92C159.503 43.904 157.607 44.396 155.399 44.396C154.919 44.396 154.415 44.348 153.887 44.252C153.383 44.18 152.975 44.084 152.663 43.964L152.771 46.952V50.228L156.119 50.66V52.712H145.427V50.66L147.767 50.228V27.404L145.427 26.756V24.272L151.367 23.516H151.439L152.339 24.236V26.252C152.939 25.508 153.755 24.86 154.787 24.308C155.819 23.756 156.947 23.48 158.171 23.48C160.451 23.48 162.323 24.296 163.787 25.928C165.251 27.536 165.983 30.008 165.983 33.344ZM156.299 26.468C155.579 26.468 154.895 26.624 154.247 26.936C153.599 27.248 153.107 27.596 152.771 27.98V41.336C152.939 41.576 153.275 41.78 153.779 41.948C154.307 42.116 154.883 42.2 155.507 42.2C157.067 42.2 158.303 41.528 159.215 40.184C160.151 38.816 160.619 36.68 160.619 33.776C160.619 31.328 160.223 29.504 159.431 28.304C158.639 27.08 157.595 26.468 156.299 26.468ZM173.175 44.324C171.663 44.324 170.547 43.976 169.827 43.28C169.107 42.584 168.747 41.48 168.747 39.968V26.756H166.407V24.884C166.599 24.812 166.947 24.692 167.451 24.524C167.955 24.332 168.339 24.176 168.603 24.056C169.011 23.744 169.359 23.204 169.647 22.436C169.863 21.932 170.259 20.684 170.835 18.692H173.715L173.859 23.984H179.367V26.756H173.895V36.872C173.895 38.216 173.931 39.164 174.003 39.716C174.075 40.268 174.231 40.628 174.471 40.796C174.711 40.94 175.131 41.012 175.731 41.012C176.331 41.012 176.955 40.952 177.603 40.832C178.251 40.688 178.791 40.52 179.223 40.328L179.907 42.344C179.235 42.848 178.251 43.304 176.955 43.712C175.659 44.12 174.399 44.324 173.175 44.324ZM196.258 44.36C195.466 44.36 194.89 44.192 194.53 43.856C194.17 43.52 193.99 43.016 193.99 42.344V41.372C193.342 42.164 192.43 42.872 191.254 43.496C190.078 44.096 188.902 44.396 187.726 44.396C185.422 44.396 183.778 43.808 182.794 42.632C181.81 41.432 181.318 39.464 181.318 36.728V26.576L179.518 26.072V24.02L185.638 23.552H185.674L186.394 24.056V36.728C186.394 38.48 186.61 39.704 187.042 40.4C187.474 41.096 188.278 41.444 189.454 41.444C190.87 41.444 192.19 40.892 193.414 39.788V26.576L191.002 26.036V24.02L197.518 23.552H197.59L198.454 24.056V41.768H200.47L200.434 43.82C200.338 43.844 199.894 43.94 199.102 44.108C198.31 44.276 197.362 44.36 196.258 44.36ZM201.214 41.876L203.59 41.588V27.404L201.286 26.756V24.272L206.866 23.516H206.974L207.874 24.236V25.028L207.766 27.944H207.874C208.042 27.464 208.438 26.876 209.062 26.18C209.686 25.46 210.466 24.836 211.402 24.308C212.362 23.756 213.394 23.48 214.498 23.48C215.026 23.48 215.482 23.552 215.866 23.696V29.096C215.146 28.592 214.27 28.34 213.238 28.34C211.486 28.34 209.962 28.808 208.666 29.744V41.552L212.842 41.876V44H201.214V41.876ZM215.963 38.384C215.963 36.2 217.055 34.556 219.239 33.452C221.447 32.348 224.291 31.784 227.771 31.76V30.932C227.771 29.948 227.663 29.18 227.447 28.628C227.255 28.076 226.883 27.668 226.331 27.404C225.803 27.116 225.023 26.972 223.991 26.972C222.815 26.972 221.759 27.128 220.823 27.44C219.887 27.728 218.915 28.112 217.907 28.592L216.791 26.288C217.151 25.976 217.751 25.604 218.591 25.172C219.455 24.74 220.475 24.368 221.651 24.056C222.827 23.72 224.039 23.552 225.287 23.552C227.135 23.552 228.575 23.792 229.607 24.272C230.663 24.752 231.419 25.52 231.875 26.576C232.331 27.632 232.559 29.048 232.559 30.824V41.84H234.503V43.856C234.023 43.976 233.339 44.096 232.451 44.216C231.563 44.336 230.783 44.396 230.111 44.396C229.295 44.396 228.743 44.276 228.455 44.036C228.191 43.796 228.059 43.304 228.059 42.56V41.588C227.411 42.308 226.571 42.956 225.539 43.532C224.507 44.108 223.343 44.396 222.047 44.396C220.943 44.396 219.923 44.168 218.987 43.712C218.075 43.232 217.343 42.548 216.791 41.66C216.239 40.748 215.963 39.656 215.963 38.384ZM224.351 41.408C224.855 41.408 225.431 41.264 226.079 40.976C226.727 40.664 227.291 40.292 227.771 39.86V33.956C225.611 33.956 223.991 34.328 222.911 35.072C221.855 35.792 221.327 36.728 221.327 37.88C221.327 39.032 221.591 39.908 222.119 40.508C222.671 41.108 223.415 41.408 224.351 41.408Z" fill="#262626"/>
</svg>
